<?xml version="1.0" encoding="UTF-8" standalone="no"?>
<!-- Created with Inkscape (http://www.inkscape.org/) -->

<svg
   width="1997.4597mm"
   height="1975.5754mm"
   viewBox="0 0 1997.4597 1975.5754"
   version="1.1"
   id="svg5"
   inkscape:version="1.2.2 (732a01da63, 2022-12-09)"
   sodipodi:docname="maker.svg"
   xmlns:inkscape="http://www.inkscape.org/namespaces/inkscape"
   xmlns:sodipodi="http://sodipodi.sourceforge.net/DTD/sodipodi-0.dtd"
   xmlns="http://www.w3.org/2000/svg"
   xmlns:svg="http://www.w3.org/2000/svg">
  <sodipodi:namedview
     id="namedview7"
     pagecolor="#ffffff"
     bordercolor="#000000"
     borderopacity="0.25"
     inkscape:showpageshadow="2"
     inkscape:pageopacity="0.0"
     inkscape:pagecheckerboard="0"
     inkscape:deskcolor="#d1d1d1"
     inkscape:document-units="mm"
     showgrid="false"
     showguides="true"
     inkscape:zoom="0.088388348"
     inkscape:cx="3671.2984"
     inkscape:cy="3982.4254"
     inkscape:window-width="1920"
     inkscape:window-height="974"
     inkscape:window-x="-11"
     inkscape:window-y="-11"
     inkscape:window-maximized="1"
     inkscape:current-layer="layer1">
    <inkscape:grid
       type="xygrid"
       id="grid337"
       originx="2839.6752"
       originy="1045.0564" />
  </sodipodi:namedview>
  <defs
     id="defs2" />
  <g
     inkscape:groupmode="layer"
     id="layer1"
     inkscape:label="Layer 4"
     transform="translate(946.55844,329.43201)">
    <path
       id="rect26729"
       style="display:inline;fill:none;fill-opacity:1;stroke:#f70016;stroke-width:0.25;stroke-linecap:square;stroke-linejoin:miter;stroke-miterlimit:0;stroke-dasharray:none;stroke-opacity:1;paint-order:stroke markers fill"
       d="M -115.56549,169.38502 V 536.63495 H 251.68444 V 169.38502 Z m 52.750272,52.74974 h 16.1623 v 3.00033 h 10.250533 v -3.00033 h 7.43314 v 3.00033 h 10.25001 v -3.00033 h 7.43313 v 3.00033 h 10.2505305 v -3.00033 H 14.616185 v 3.00033 h 10.25054 v -3.00033 h 7.43314 v 3.00033 h 10.250019 v -3.00033 h 7.43314 v 3.00033 h 10.250531 v -3.00033 h 15.65176 v 3.00033 h 10.25054 v -3.00033 h 7.43314 v 3.00033 h 10.250025 v -3.00033 h 7.43313 v 3.00033 h 10.25055 v -3.00033 h 15.65176 v 3.00033 h 10.25055 v -3.00033 h 7.43313 v 3.00033 h 10.25001 v -3.00033 h 7.43315 v 3.00033 h 10.25054 v -3.00033 h 16.16284 v 16.16283 h -3.00034 v 10.25054 h 3.00034 v 7.43314 h -3.00034 v 10.25002 h 3.00034 v 7.43314 h -3.00034 v 10.25054 h 3.00034 v 15.65175 h -3.00034 v 10.25054 h 3.00034 v 7.43314 h -3.00034 v 10.25002 h 3.00034 v 7.43314 h -3.00034 v 10.25053 h 3.00034 v 15.65176 h -3.00034 v 10.25054 h 3.00034 v 7.43314 h -3.00034 v 10.25002 h 3.00034 v 7.43313 h -3.00034 v 10.25055 h 3.00034 v 15.65176 h -3.00034 v 10.25054 h 3.00034 v 7.43314 h -3.00034 v 10.25002 h 3.00034 v 7.43313 h -3.00034 v 10.25054 h 3.00034 v 16.16284 h -16.16285 v -3.00034 h -10.25055 v 3.00034 h -7.43313 v -3.00034 h -10.25001 v 3.00034 H 147.405 v -3.00034 h -10.25054 v 3.00034 H 121.5027 v -3.00034 h -10.25055 v 3.00034 h -7.43313 v -3.00034 H 93.568995 v 3.00034 h -7.43314 v -3.00034 h -10.25054 v 3.00034 h -15.65176 v -3.00034 H 49.983024 v 3.00034 h -7.43314 v -3.00034 H 32.299865 v 3.00034 h -7.43314 v -3.00034 h -10.25054 v 3.00034 H -1.0355745 v -3.00034 H -11.286105 v 3.00034 h -7.43313 v -3.00034 h -10.25001 v 3.00034 h -7.43314 v -3.00034 h -10.250533 v 3.00034 h -16.1623 v -16.16284 h 2.99981 v -10.25054 h -2.99981 v -7.43313 h 2.99981 v -10.25002 h -2.99981 v -7.43314 h 2.99981 v -10.25054 h -2.99981 v -15.65176 h 2.99981 v -10.25055 h -2.99981 v -7.43313 h 2.99981 v -10.25002 h -2.99981 v -7.43314 h 2.99981 v -10.25054 h -2.99981 v -15.65176 h 2.99981 v -10.25053 h -2.99981 v -7.43314 h 2.99981 V 317.2504 h -2.99981 v -7.43314 h 2.99981 v -10.25054 h -2.99981 v -15.65175 h 2.99981 v -10.25054 h -2.99981 v -7.43314 h 2.99981 v -10.25002 h -2.99981 v -7.43314 h 2.99981 v -10.25054 h -2.99981 z" />
    <path
       id="rect25771-7"
       style="display:inline;fill:none;fill-opacity:1;stroke:#f70016;stroke-width:0.25;stroke-linecap:square;stroke-linejoin:miter;stroke-miterlimit:0;stroke-dasharray:none;stroke-opacity:1;paint-order:stroke markers fill"
       d="m 122.97114,67.148666 v 7.31635 h -3.00034 v 10.25054 h 3.00034 v 7.43314 h -3.00034 v 10.250024 h 3.00034 v 7.43314 h -3.00034 v 10.25053 h 3.00034 v 7.31635 h 13.4121 v 2.9993 h 10.25054 v -2.9993 h 7.43313 v 2.9993 h 10.25002 v -2.9993 h 7.43314 v 2.9993 h 10.25054 v -2.9993 h 15.65176 v 2.9993 h 10.25053 v -2.9993 h 7.43314 v 2.9993 h 10.25002 v -2.9993 h 7.43314 v 2.9993 h 10.25054 v -2.9993 h 15.65175 v 2.9993 h 10.25054 v -2.9993 h 7.43314 v 2.9993 h 10.25002 v -2.9993 h 7.43314 v 2.9993 h 10.25054 v -2.9993 h 15.65175 v 2.9993 h 10.25054 v -2.9993 h 7.43314 v 2.9993 h 10.25002 v -2.9993 h 7.43314 v 2.9993 h 10.25053 v -2.9993 h 13.41262 v -7.31635 h 3.00034 v -10.25053 h -3.00034 v -7.43314 h 3.00034 V 92.148696 h -3.00034 v -7.43314 h 3.00034 v -10.25054 h -3.00034 v -7.31635 h -13.4121 v 3.00034 h -10.25054 v -3.00034 h -7.43313 v 3.00034 h -10.25002 v -3.00034 h -7.43314 v 3.00034 h -10.25054 v -3.00034 h -15.65176 v 3.00034 h -10.25053 v -3.00034 h -7.43314 v 3.00034 h -10.25002 v -3.00034 h -7.43314 v 3.00034 h -10.25054 v -3.00034 h -15.65176 v 3.00034 h -10.25053 v -3.00034 h -7.43314 v 3.00034 h -10.25002 v -3.00034 h -7.43314 v 3.00034 h -10.25054 v -3.00034 h -15.65175 v 3.00034 h -10.25054 v -3.00034 h -7.43314 v 3.00034 h -10.25002 v -3.00034 h -7.43314 v 3.00034 h -10.25054 v -3.00034 z" />
    <path
       id="rect25771-8"
       style="display:inline;fill:none;fill-opacity:1;stroke:#f70016;stroke-width:0.25;stroke-linecap:square;stroke-linejoin:miter;stroke-miterlimit:0;stroke-dasharray:none;stroke-opacity:1;paint-order:stroke markers fill"
       d="m 119.42855,-31.059478 v 7.31635 h 2.99982 v 10.25054 h -2.99982 v 7.4331396 h 2.99982 v 10.25002 h -2.99982 v 7.4331304 h 2.99982 v 10.25054 h -2.99982 v 7.31635 h 16.41244 v 2.99982 h 10.25053 v -2.99982 h 7.43314 v 2.99982 h 10.25002 v -2.99982 h 7.43314 v 2.99982 h 10.25054 v -2.99982 h 15.65175 v 2.99982 h 10.25054 v -2.99982 h 7.43314 v 2.99982 h 10.25002 v -2.99982 h 7.43314 v 2.99982 h 10.25054 v -2.99982 h 15.65175 v 2.99982 h 10.25054 v -2.99982 h 7.43314 v 2.99982 h 10.25002 v -2.99982 h 7.43314 v 2.99982 h 10.25053 v -2.99982 h 15.65176 v 2.99982 h 10.25054 v -2.99982 h 7.43314 v 2.99982 h 10.25002 v -2.99982 h 7.43313 v 2.99982 h 10.25054 v -2.99982 h 16.41244 v -7.31635 h -3.00034 v -10.25054 h 3.00034 V 4.1905716 h -3.00034 v -10.25002 h 3.00034 v -7.4331396 h -3.00034 v -10.25054 h 3.00034 v -7.31635 h -16.41244 v 3.00033 H 355.0152 v -3.00033 h -7.43313 v 3.00033 h -10.25002 v -3.00033 h -7.43314 v 3.00033 h -10.25054 v -3.00033 h -15.65176 v 3.00033 h -10.25053 v -3.00033 h -7.43314 v 3.00033 h -10.25002 v -3.00033 h -7.43314 v 3.00033 h -10.25054 v -3.00033 h -15.65175 v 3.00033 h -10.25054 v -3.00033 h -7.43314 v 3.00033 h -10.25002 v -3.00033 h -7.43314 v 3.00033 h -10.25054 v -3.00033 h -15.65175 v 3.00033 h -10.25054 v -3.00033 h -7.43314 v 3.00033 h -10.25002 v -3.00033 h -7.43314 v 3.00033 h -10.25053 v -3.00033 z" />
    <path
       id="rect25771"
       style="display:inline;fill:none;fill-opacity:1;stroke:#f70016;stroke-width:0.25;stroke-linecap:square;stroke-linejoin:miter;stroke-miterlimit:0;stroke-dasharray:none;stroke-opacity:1;paint-order:stroke markers fill"
       d="m -174.26015,-33.461385 v 7.31635 h 3.00034 v 10.25054 h -3.00034 v 7.4331296 h 3.00034 v 10.250018 h -3.00034 v 7.433134 h 3.00034 V 19.472327 h -3.00034 v 7.31635 h 16.41295 v 2.99982 h 10.25054 v -2.99982 h 7.43314 v 2.99982 h 10.25003 v -2.99982 h 7.43314 v 2.99982 h 10.25053 v -2.99982 h 15.651756 v 2.99982 h 10.25054 v -2.99982 h 7.43314 v 2.99982 h 10.25002 v -2.99982 h 7.43314 v 2.99982 h 10.25053 v -2.99982 h 15.65176 v 2.99982 h 10.25054 v -2.99982 h 7.43314 v 2.99982 h 10.250021 v -2.99982 h 7.43313001 v 2.99982 H 10.308436 v -2.99982 h 15.65176 v 2.99982 h 10.25054 v -2.99982 h 7.43313 v 2.99982 h 10.25002 v -2.99982 h 7.43314 v 2.99982 h 10.250536 v -2.99982 h 13.4121 v -7.31635 h 3.00033 V 9.2217866 h -3.00033 v -7.433134 h 3.00033 v -10.250018 h -3.00033 v -7.4331296 h 3.00033 v -10.25054 h -3.00033 v -7.31635 h -13.4121 v 3.00033 H 61.327026 v -3.00033 h -7.43314 v 3.00033 h -10.25002 v -3.00033 h -7.43313 v 3.00033 h -10.25054 v -3.00033 h -15.65176 v 3.00033 H 0.05789701 v -3.00033 H -7.375233 v 3.00033 h -10.250021 v -3.00033 h -7.43314 v 3.00033 h -10.25054 v -3.00033 h -15.65176 v 3.00033 h -10.25053 v -3.00033 h -7.43314 v 3.00033 h -10.25002 v -3.00033 h -7.43314 v 3.00033 h -10.25054 v -3.00033 h -15.651756 v 3.00033 h -10.25053 v -3.00033 h -7.43314 v 3.00033 h -10.25003 v -3.00033 h -7.43314 v 3.00033 h -10.25054 v -3.00033 z" />
    <path
       id="rect25771-4"
       style="display:inline;fill:none;fill-opacity:1;stroke:#f70016;stroke-width:0.25;stroke-linecap:square;stroke-linejoin:miter;stroke-miterlimit:0;stroke-dasharray:none;stroke-opacity:1;paint-order:stroke markers fill"
       d="m 86.64968,71.041508 v 7.31635 h -3.00034 v 10.25054 h 3.00034 v 7.43313 h -3.00034 v 10.250032 h 3.00034 v 7.43313 h -3.00034 v 10.25054 h 3.00034 v 7.31635 H 70.23673 v 2.99982 H 59.98619 v -2.99982 h -7.433141 v 2.99982 h -10.25002 v -2.99982 h -7.43314 v 2.99982 h -10.25053 v -2.99982 H 8.9675993 v 2.99982 h -10.25054 v -2.99982 h -7.4331401 v 2.99982 H -18.966101 v -2.99982 h -7.433139 v 2.99982 h -10.250531 v -2.99982 h -15.65176 v 2.99982 h -10.25054 v -2.99982 h -7.43314 v 2.99982 h -10.25002 v -2.99982 h -7.43313 v 2.99982 h -10.25054 v -2.99982 h -15.651759 v 2.99982 h -10.25054 v -2.99982 h -7.43313 v 2.99982 h -10.25002 v -2.99982 h -7.43314 v 2.99982 h -10.25054 v -2.99982 h -13.4121 v -7.31635 h -3.00033 v -10.25054 h 3.00033 v -7.43313 h -3.00033 V 96.041528 h 3.00033 v -7.43313 h -3.00033 v -10.25054 h 3.00033 v -7.31635 h 13.4121 v 3.00033 h 10.25054 v -3.00033 h 7.43314 v 3.00033 h 10.25002 v -3.00033 h 7.43313 v 3.00033 h 10.25054 v -3.00033 h 15.651759 v 3.00033 h 10.25054 v -3.00033 h 7.43313 v 3.00033 h 10.25002 v -3.00033 h 7.43314 v 3.00033 h 10.25054 v -3.00033 h 15.65176 v 3.00033 h 10.250531 v -3.00033 h 7.433139 v 3.00033 h 10.2500202 v -3.00033 h 7.4331401 v 3.00033 h 10.25054 v -3.00033 H 24.619359 v 3.00033 h 10.25053 v -3.00033 h 7.43314 v 3.00033 h 10.25002 v -3.00033 h 7.433141 v 3.00033 h 10.25054 v -3.00033 z" />
    <path
       id="rect29871-10-9"
       style="display:inline;fill:none;fill-opacity:1;stroke:#f70016;stroke-width:0.249828;stroke-linecap:square;stroke-linejoin:miter;stroke-miterlimit:0;stroke-dasharray:none;stroke-opacity:1;paint-order:stroke markers fill"
       d="m -943.43319,496.91445 h -3.00034 v 16.41295 h 3.00034 z m 0,26.66349 h -3.00034 v 7.43313 h 3.00034 z m 0,17.68315 h -3.00034 v 7.43314 h 3.00034 z m 0,17.68368 h -3.00034 v 15.65176 h 3.00034 z m 0,25.90229 h -3.00034 v 7.43314 h 3.00034 z m 0,17.68316 h -3.00034 v 7.43314 h 3.00034 z m 0,17.68368 h -3.00034 v 15.65176 h 3.00034 z m 0,25.90229 h -3.00034 v 7.43314 h 3.00034 z m 0,17.68316 h -3.00034 v 7.43314 h 3.00034 z m 0,17.68368 h -3.00034 v 15.65175 h 3.00034 z m 0,25.90229 h -3.00034 v 7.43314 h 3.00034 z m 0,17.68316 h -3.00034 v 7.43314 h 3.00034 z m 0,17.68368 h -3.00034 v 16.41243 h 3.00034 z" />
    <path
       style="fill:none;stroke:#f70016;stroke-width:0.25001;stroke-linecap:square;stroke-miterlimit:0;stroke-dasharray:none;paint-order:stroke markers fill"
       d="m 876.63008,321.1594 -2e-5,63.32375 -457.82607,0.0629 0.01,-59.79757 8.38827,-47.6505 443.1633,78.1423 z"
       id="path7005"
       sodipodi:nodetypes="ccccccc" />
    <path
       style="fill:none;stroke:#f70016;stroke-width:0.25001;stroke-linecap:square;stroke-miterlimit:0;stroke-dasharray:none;paint-order:stroke markers fill"
       d="m 876.6301,625.71539 -10e-5,63.32375 -457.82603,0.0629 0.01,-59.79757 8.38827,-47.6505 443.16326,78.1423 z"
       id="path7005-5"
       sodipodi:nodetypes="ccccccc" />
    <path
       style="fill:none;stroke:#f70016;stroke-width:0.25001;stroke-linecap:square;stroke-miterlimit:0;stroke-dasharray:none;paint-order:stroke markers fill"
       d="m 876.6301,777.99338 -10e-5,63.32375 -457.82603,0.0629 0.01,-59.79757 8.38827,-47.6505 443.16326,78.1423 z"
       id="path7005-7"
       sodipodi:nodetypes="ccccccc" />
    <path
       style="fill:none;stroke:#f70016;stroke-width:0.25001;stroke-linecap:square;stroke-miterlimit:0;stroke-dasharray:none;paint-order:stroke markers fill"
       d="m 876.6301,473.43739 -10e-5,63.32375 -457.82603,0.0629 0.01,-59.79757 8.38827,-47.6505 443.16326,78.1423 z"
       id="path7005-0"
       sodipodi:nodetypes="ccccccc" />
    <rect
       style="fill:none;stroke:#f70016;stroke-width:0.250266;stroke-linecap:square;stroke-miterlimit:0;stroke-dasharray:none;paint-order:stroke markers fill"
       id="rect7154"
       width="450.24973"
       height="35.249733"
       x="-188.53862"
       y="576.30127" />
    <rect
       style="fill:none;stroke:#f70016;stroke-width:0.250266;stroke-linecap:square;stroke-miterlimit:0;stroke-dasharray:none;paint-order:stroke markers fill"
       id="rect7154-7"
       width="450.24973"
       height="35.249733"
       x="-192.8354"
       y="640.82861" />
    <rect
       style="fill:none;stroke:#f70016;stroke-width:0.250266;stroke-linecap:square;stroke-miterlimit:0;stroke-dasharray:none;paint-order:stroke markers fill"
       id="rect7154-6"
       width="450.24973"
       height="35.249733"
       x="-192.83539"
       y="712.67059" />
    <rect
       style="fill:none;stroke:#f70016;stroke-width:0.250266;stroke-linecap:square;stroke-miterlimit:0;stroke-dasharray:none;paint-order:stroke markers fill"
       id="rect7154-3"
       width="450.24973"
       height="35.249733"
       x="-188.34526"
       y="783.01605" />
    <path
       id="rect7273"
       style="fill:none;stroke:#f70016;stroke-width:0.250004;stroke-linecap:square;stroke-miterlimit:0;stroke-dasharray:none;paint-order:stroke markers fill"
       d="m -132.79014,849.10145 v 7.02283 h 3.00033 v 10.25054 h -3.00033 v 7.43313 h 3.00033 v 10.25003 h -3.00033 v 7.43313 h 3.00033 v 10.25054 h -3.00033 v 7.02283 h 8.8222 v -2.99982 h 10.25002 v 2.99982 h 7.43313 v -2.99982 h 10.250545 v 2.99982 h 7.433138 v -2.99982 h 10.25002 v 2.99982 h 8.822201 v -7.02283 h -3.000334 v -10.25054 h 3.000334 v -7.43313 h -3.000334 v -10.25003 h 3.000334 v -7.43313 h -3.000334 v -10.25054 h 3.000334 v -7.02283 h -8.821684 v 3.00034 h -10.250537 v -3.00034 h -7.433138 v 3.00034 h -10.250025 v -3.00034 h -7.43314 v 3.00034 h -10.25053 v -3.00034 z" />
    <path
       id="rect7273-7"
       style="fill:none;stroke:#f70016;stroke-width:0.250004;stroke-linecap:square;stroke-miterlimit:0;stroke-dasharray:none;paint-order:stroke markers fill"
       d="m -131.79993,922.29385 v 7.02283 h 3.00033 v 10.25054 h -3.00033 v 7.43313 h 3.00033 v 10.25003 h -3.00033 v 7.43313 h 3.00033 v 10.25054 h -3.00033 v 7.02283 h 8.8222 v -2.99982 h 10.25002 v 2.99982 h 7.43313 v -2.99982 h 10.250544 v 2.99982 h 7.433138 v -2.99982 h 10.25002 v 2.99982 h 8.822201 v -7.02283 h -3.000334 v -10.25054 h 3.000334 v -7.43313 h -3.000334 v -10.25003 h 3.000334 v -7.43313 h -3.000334 v -10.25054 h 3.000334 v -7.02283 h -8.821684 v 3.00034 h -10.250537 v -3.00034 h -7.433138 v 3.00034 h -10.250024 v -3.00034 h -7.43314 v 3.00034 h -10.25053 v -3.00034 z" />
    <path
       id="rect8731"
       style="fill:none;stroke:#f70016;stroke-width:0.249834;stroke-linecap:square;stroke-miterlimit:0;stroke-dasharray:none;paint-order:stroke markers fill"
       d="m -42.918597,849.23829 v 2.99982 h -8.822201 v 4.31653 h 3.000334 v 10.25002 h -3.000334 v 7.43314 h 3.000334 v 10.25053 h -3.000334 v 7.43263 h 3.000334 v 10.25053 h -3.000334 v 4.31653 h 8.822201 v 2.99982 h 10.25002 v -2.99982 h 7.433138 v 2.99982 h 10.250537 v -2.99982 h 7.4326208 v 2.99982 h 10.250537 v -2.99982 h 5.822384 v -4.31601 H 11.520457 V 891.92147 H 8.5206398 v -7.43365 H 11.520457 V 874.23831 H 8.5206398 v -7.43313 H 11.520457 V 856.55412 H 8.5206398 v -4.31601 h -5.822384 v -2.99982 h -10.250537 v 2.99982 h -7.4326208 v -2.99982 h -10.250537 v 2.99982 h -7.433138 v -2.99982 z" />
    <path
       id="rect8731-2"
       style="fill:none;stroke:#f70016;stroke-width:0.249834;stroke-linecap:square;stroke-miterlimit:0;stroke-dasharray:none;paint-order:stroke markers fill"
       d="m -42.064983,918.3978 v 2.99982 h -5.821867 v 4.31653 h -2.999817 v 10.25054 h 2.999817 v 7.43313 h -2.999817 v 10.25002 h 2.999817 v 7.43314 h -2.999817 v 10.25054 h 2.999817 v 4.31653 h 5.822383 v 3.00033 h 10.250538 v -3.00033 h 7.432621 v 3.00033 h 10.250537 v -3.00033 h 7.4331382 v 3.00033 h 10.25002 v -3.00033 h 8.8222008 v -4.31653 H 9.3742542 v -10.25054 h 3.0003338 v -7.43314 H 9.3742542 v -10.25002 h 3.0003338 v -7.43313 H 9.3742542 v -10.25054 h 3.0003338 v -4.31653 H 3.5523872 v -2.99982 h -10.250537 v 2.99982 h -7.4331382 v -2.99982 h -10.25002 v 2.99982 h -7.433138 v -2.99982 z" />
    <path
       id="rect8731-3"
       style="fill:none;stroke:#f70016;stroke-width:0.249968;stroke-linecap:square;stroke-miterlimit:0;stroke-dasharray:none;paint-order:stroke markers fill"
       d="m 41.958238,849.89363 v 2.99981 h -7.022827 v 4.31602 h 3.000334 v 10.25053 h -3.000334 v 7.43314 h 3.000334 v 10.25002 h -3.000334 v 7.43314 h 3.000334 v 10.25054 h -3.000334 v 4.31653 h 7.022827 v 2.9993 h 10.250537 v -2.9993 h 7.433138 v 2.9993 h 10.250021 v -2.9993 h 7.433138 v 2.9993 h 10.25054 v -2.9993 h 7.022833 v -4.31601 h -3.00034 v -10.25054 h 3.00034 v -7.43314 h -3.00034 v -10.25002 h 3.00034 v -7.43314 h -3.00034 v -10.25054 h 3.00034 v -4.31653 h -7.022833 v -2.99981 h -10.25054 v 2.99981 h -7.433138 v -2.99981 H 59.641913 v 2.99981 h -7.433138 v -2.99981 z" />
    <path
       id="rect8731-3-1"
       style="fill:none;stroke:#f70016;stroke-width:0.249968;stroke-linecap:square;stroke-miterlimit:0;stroke-dasharray:none;paint-order:stroke markers fill"
       d="m 40.745583,919.56303 v 2.99982 h -4.02301 v 4.31601 h -2.999817 v 10.25054 h 2.999817 v 7.43314 h -2.999817 v 10.25002 h 2.999817 v 7.43314 h -2.999817 v 10.25053 h 2.999817 v 4.31654 h 4.02301 v 2.99981 H 50.99612 v -2.99981 h 7.433139 v 2.99981 h 10.25002 v -2.99981 h 7.433137 v 2.99981 h 10.250537 v -2.99981 h 4.02301 v -4.31602 h 2.99982 v -10.25054 h -2.99982 v -7.43365 h 2.99982 v -10.24951 h -2.99982 v -7.43313 h 2.99982 v -10.25106 h -2.99982 v -4.31601 h -4.02301 v -2.99982 H 76.112416 v 2.99982 h -7.433137 v -2.99982 h -10.25002 v 2.99982 H 50.99612 v -2.99982 z" />
    <path
       id="rect7273-8"
       style="fill:none;stroke:#f70016;stroke-width:0.250004;stroke-linecap:square;stroke-miterlimit:0;stroke-dasharray:none;paint-order:stroke markers fill"
       d="m -133.78964,1014.0405 v 7.0228 h 3.00033 v 10.2506 h -3.00033 v 7.4331 h 3.00033 v 10.25 h -3.00033 v 7.4332 h 3.00033 v 10.2505 h -3.00033 v 7.0228 h 8.8222 v -2.9998 h 10.25002 v 2.9998 h 7.43313 v -2.9998 h 10.250547 v 2.9998 h 7.433138 v -2.9998 h 10.25002 v 2.9998 h 8.822201 v -7.0228 h -3.000334 v -10.2505 h 3.000334 v -7.4332 h -3.000334 v -10.25 h 3.000334 v -7.4331 h -3.000334 v -10.2506 h 3.000334 v -7.0228 h -8.821684 v 3.0003 h -10.250537 v -3.0003 h -7.433138 v 3.0003 h -10.250027 v -3.0003 h -7.43314 v 3.0003 h -10.25053 v -3.0003 z" />
    <path
       id="rect7273-7-1"
       style="fill:none;stroke:#f70016;stroke-width:0.250004;stroke-linecap:square;stroke-miterlimit:0;stroke-dasharray:none;paint-order:stroke markers fill"
       d="m -132.79943,1087.2329 v 7.0228 h 3.00033 v 10.2506 h -3.00033 v 7.4331 h 3.00033 v 10.25 h -3.00033 v 7.4332 h 3.00033 v 10.2505 h -3.00033 v 7.0228 h 8.8222 v -2.9998 h 10.25002 v 2.9998 h 7.43313 v -2.9998 h 10.250546 v 2.9998 h 7.433138 v -2.9998 h 10.25002 v 2.9998 h 8.822201 v -7.0228 h -3.000334 v -10.2505 h 3.000334 v -7.4332 h -3.000334 v -10.25 h 3.000334 v -7.4331 h -3.000334 v -10.2506 h 3.000334 v -7.0228 h -8.821684 v 3.0003 h -10.250537 v -3.0003 h -7.433138 v 3.0003 h -10.250026 v -3.0003 h -7.43314 v 3.0003 h -10.25053 v -3.0003 z" />
    <path
       id="rect8731-1"
       style="fill:none;stroke:#f70016;stroke-width:0.249834;stroke-linecap:square;stroke-miterlimit:0;stroke-dasharray:none;paint-order:stroke markers fill"
       d="m -43.918095,1014.1773 v 2.9998 h -8.822201 v 4.3166 h 3.000334 v 10.25 h -3.000334 v 7.4332 h 3.000334 v 10.2505 h -3.000334 v 7.4326 h 3.000334 v 10.2505 h -3.000334 v 4.3166 h 8.822201 v 2.9998 h 10.25002 v -2.9998 h 7.433138 v 2.9998 h 10.250539 v -2.9998 h 7.4326197 v 2.9998 h 10.25054 v -2.9998 h 5.82238 v -4.316 h 2.9998203 v -10.2506 H 7.5211417 v -7.4336 h 2.9998203 v -10.2495 H 7.5211417 v -7.4332 h 2.9998203 v -10.251 H 7.5211417 v -4.3161 h -5.82238 v -2.9998 h -10.25054 v 2.9998 h -7.4326197 v -2.9998 h -10.250539 v 2.9998 h -7.433138 v -2.9998 z" />
    <path
       id="rect8731-2-8"
       style="fill:none;stroke:#f70016;stroke-width:0.249834;stroke-linecap:square;stroke-miterlimit:0;stroke-dasharray:none;paint-order:stroke markers fill"
       d="m -43.064481,1083.3369 v 2.9998 h -5.821867 v 4.3165 h -2.999817 v 10.2505 h 2.999817 v 7.4332 h -2.999817 v 10.25 h 2.999817 v 7.4331 h -2.999817 v 10.2506 h 2.999817 v 4.3165 h 5.822383 v 3.0003 h 10.250538 v -3.0003 h 7.432621 v 3.0003 h 10.250538 v -3.0003 h 7.4331397 v 3.0003 h 10.25002 v -3.0003 h 8.8222003 v -4.3165 H 8.3747517 V 1126.02 h 3.0003403 v -7.4331 H 8.3747517 v -10.25 h 3.0003403 v -7.4332 H 8.3747517 v -10.2505 h 3.0003403 v -4.3165 H 2.5528917 v -2.9998 h -10.25054 v 2.9998 h -7.4331397 v -2.9998 h -10.250018 v 2.9998 h -7.433138 v -2.9998 z" />
    <path
       id="rect8731-3-6"
       style="fill:none;stroke:#f70016;stroke-width:0.249968;stroke-linecap:square;stroke-miterlimit:0;stroke-dasharray:none;paint-order:stroke markers fill"
       d="m 40.958742,1014.8327 v 2.9998 h -7.02283 v 4.316 h 3.00033 v 10.2505 h -3.00033 v 7.4332 h 3.00033 v 10.25 h -3.00033 v 7.4331 h 3.00033 v 10.2506 h -3.00033 v 4.3165 h 7.02283 v 2.9993 h 10.25054 v -2.9993 h 7.43313 v 2.9993 h 10.25002 v -2.9993 h 7.43314 v 2.9993 h 10.25054 v -2.9993 h 7.02283 v -4.316 h -3.00033 v -10.2505 h 3.00033 v -7.4332 h -3.00033 v -10.25 h 3.00033 v -7.4331 h -3.00033 v -10.2506 h 3.00033 v -4.3165 h -7.02283 v -2.9998 h -10.25054 v 2.9998 h -7.43314 v -2.9998 h -10.25002 v 2.9998 h -7.43313 v -2.9998 z" />
    <path
       id="rect8731-3-1-5"
       style="fill:none;stroke:#f70016;stroke-width:0.249968;stroke-linecap:square;stroke-miterlimit:0;stroke-dasharray:none;paint-order:stroke markers fill"
       d="m 39.746082,1084.5021 v 2.9998 h -4.02301 v 4.316 h -2.99981 v 10.2506 h 2.99981 v 7.4331 h -2.99981 v 10.25 h 2.99981 v 7.4331 h -2.99981 v 10.2506 h 2.99981 v 4.3165 h 4.02301 v 2.9998 h 10.25054 v -2.9998 h 7.43314 v 2.9998 h 10.25002 v -2.9998 h 7.43314 v 2.9998 h 10.25053 v -2.9998 h 4.02301 v -4.316 h 2.99982 v -10.2505 h -2.99982 v -7.4337 h 2.99982 v -10.2495 h -2.99982 v -7.4331 h 2.99982 v -10.2511 h -2.99982 v -4.316 h -4.02301 v -2.9998 h -10.25053 v 2.9998 h -7.43314 v -2.9998 h -10.25002 v 2.9998 h -7.43314 v -2.9998 z" />
    <path
       id="rect7273-2"
       style="fill:none;stroke:#f70016;stroke-width:0.250004;stroke-linecap:square;stroke-miterlimit:0;stroke-dasharray:none;paint-order:stroke markers fill"
       d="m 118.40589,850.89916 v 7.02283 h 3.00033 v 10.25054 h -3.00033 v 7.43313 h 3.00033 v 10.25003 h -3.00033 v 7.43316 h 3.00033 v 10.2505 h -3.00033 v 7.0228 h 8.8222 v -2.9998 h 10.25002 v 2.9998 h 7.43313 v -2.9998 h 10.25055 v 2.9998 h 7.43313 v -2.9998 h 10.25002 v 2.9998 h 8.8222 v -7.0228 h -3.00033 v -10.2505 h 3.00033 v -7.43316 h -3.00033 v -10.25003 h 3.00033 v -7.43313 h -3.00033 v -10.25054 h 3.00033 v -7.02283 h -8.82168 v 3.00034 h -10.25054 v -3.00034 h -7.43313 v 3.00034 h -10.25003 v -3.00034 h -7.43314 v 3.00034 h -10.25053 v -3.00034 z" />
    <path
       id="rect7273-7-0"
       style="fill:none;stroke:#f70016;stroke-width:0.250004;stroke-linecap:square;stroke-miterlimit:0;stroke-dasharray:none;paint-order:stroke markers fill"
       d="m 119.3961,924.09155 v 7.0228 h 3.00033 v 10.2506 h -3.00033 v 7.4331 h 3.00033 v 10.25 h -3.00033 v 7.4332 h 3.00033 v 10.2505 h -3.00033 v 7.0228 h 8.8222 v -2.9998 h 10.25002 v 2.9998 h 7.43313 v -2.9998 h 10.25054 v 2.9998 h 7.43314 v -2.9998 h 10.25002 v 2.9998 h 8.8222 v -7.0228 h -3.00033 v -10.2505 h 3.00033 v -7.4332 h -3.00033 v -10.25 h 3.00033 v -7.4331 h -3.00033 v -10.2506 h 3.00033 v -7.0228 h -8.82168 v 3.0004 h -10.25054 v -3.0004 h -7.43314 v 3.0004 h -10.25002 v -3.0004 h -7.43314 v 3.0004 H 128.2183 v -3.0004 z" />
    <path
       id="rect8731-5"
       style="fill:none;stroke:#f70016;stroke-width:0.249834;stroke-linecap:square;stroke-miterlimit:0;stroke-dasharray:none;paint-order:stroke markers fill"
       d="m 208.27743,851.036 v 2.99982 h -8.8222 v 4.31653 h 3.00034 v 10.25002 h -3.00034 v 7.43314 h 3.00034 v 10.25053 h -3.00034 v 7.43261 h 3.00034 v 10.2506 h -3.00034 v 4.3165 h 8.8222 v 2.9998 h 10.25002 v -2.9998 h 7.43314 v 2.9998 h 10.25054 v -2.9998 h 7.43262 v 2.9998 h 10.25054 v -2.9998 h 5.82238 v -4.316 h 2.99982 v -10.2506 h -2.99982 v -7.43362 h 2.99982 v -10.24951 h -2.99982 v -7.43313 h 2.99982 v -10.25106 h -2.99982 v -4.31601 h -5.82238 V 851.036 h -10.25054 v 2.99982 h -7.43262 V 851.036 h -10.25054 v 2.99982 h -7.43314 V 851.036 Z" />
    <path
       id="rect8731-2-3"
       style="fill:none;stroke:#f70016;stroke-width:0.249834;stroke-linecap:square;stroke-miterlimit:0;stroke-dasharray:none;paint-order:stroke markers fill"
       d="m 209.13105,920.19555 v 2.9998 h -5.82187 v 4.3165 h -2.99982 v 10.2506 h 2.99982 v 7.4331 h -2.99982 v 10.25 h 2.99982 v 7.4331 h -2.99982 v 10.2506 h 2.99982 v 4.3165 h 5.82238 v 3.0003 h 10.25054 v -3.0003 h 7.43262 v 3.0003 h 10.25054 v -3.0003 h 7.43314 v 3.0003 h 10.25002 v -3.0003 h 8.8222 v -4.3165 h -3.00034 v -10.2506 h 3.00034 v -7.4331 h -3.00034 v -10.25 h 3.00034 v -7.4331 h -3.00034 v -10.2506 h 3.00034 v -4.3165 h -8.8222 v -2.9998 h -10.25054 v 2.9998 h -7.43314 v -2.9998 h -10.25002 v 2.9998 h -7.43314 v -2.9998 z" />
    <path
       id="rect8731-3-4"
       style="fill:none;stroke:#f70016;stroke-width:0.249968;stroke-linecap:square;stroke-miterlimit:0;stroke-dasharray:none;paint-order:stroke markers fill"
       d="m 293.15427,851.69134 v 2.99981 h -7.02283 v 4.31602 h 3.00033 v 10.25053 h -3.00033 v 7.43314 h 3.00033 v 10.25002 h -3.00033 v 7.43309 h 3.00033 v 10.2506 h -3.00033 v 4.3165 h 7.02283 v 2.9993 h 10.25053 v -2.9993 h 7.43314 v 2.9993 h 10.25002 v -2.9993 h 7.43314 v 2.9993 h 10.25054 v -2.9993 h 7.02283 v -4.316 h -3.00034 v -10.2505 h 3.00034 v -7.43317 h -3.00034 v -10.25002 h 3.00034 v -7.43314 h -3.00034 v -10.25054 h 3.00034 v -4.31653 h -7.02283 v -2.99981 H 328.5211 v 2.99981 h -7.43314 v -2.99981 h -10.25002 v 2.99981 h -7.43314 v -2.99981 z" />
    <path
       id="rect8731-3-1-3"
       style="fill:none;stroke:#f70016;stroke-width:0.249968;stroke-linecap:square;stroke-miterlimit:0;stroke-dasharray:none;paint-order:stroke markers fill"
       d="m 291.94161,921.36075 v 2.9998 h -4.02301 v 4.316 h -2.99981 v 10.2506 h 2.99981 v 7.4331 h -2.99981 v 10.25 h 2.99981 v 7.4332 h -2.99981 v 10.2505 h 2.99981 v 4.3165 h 4.02301 v 2.9998 h 10.25054 v -2.9998 h 7.43314 v 2.9998 h 10.25002 v -2.9998 h 7.43314 v 2.9998 h 10.25053 v -2.9998 h 4.02301 v -4.316 h 2.99982 v -10.2505 h -2.99982 v -7.4337 h 2.99982 v -10.2495 h -2.99982 v -7.4331 h 2.99982 v -10.2511 h -2.99982 v -4.316 h -4.02301 v -2.9998 h -10.25053 v 2.9998 h -7.43314 v -2.9998 h -10.25002 v 2.9998 h -7.43314 v -2.9998 z" />
    <path
       id="rect7273-1"
       style="fill:none;stroke:#f70016;stroke-width:0.250004;stroke-linecap:square;stroke-miterlimit:0;stroke-dasharray:none;paint-order:stroke markers fill"
       d="m 119.15424,1017.0339 v 7.0228 h 3.00033 v 10.2506 h -3.00033 v 7.4331 h 3.00033 v 10.25 h -3.00033 v 7.4332 h 3.00033 v 10.2505 h -3.00033 v 7.0228 h 8.8222 v -2.9998 h 10.25002 v 2.9998 h 7.43313 v -2.9998 h 10.25054 v 2.9998 h 7.43314 v -2.9998 h 10.25002 v 2.9998 h 8.8222 v -7.0228 h -3.00033 v -10.2505 h 3.00033 v -7.4332 h -3.00033 v -10.25 h 3.00033 v -7.4331 h -3.00033 v -10.2506 h 3.00033 v -7.0228 h -8.82168 v 3.0003 h -10.25054 v -3.0003 h -7.43314 v 3.0003 h -10.25002 v -3.0003 h -7.43314 v 3.0003 h -10.25053 v -3.0003 z" />
    <path
       id="rect7273-7-5"
       style="fill:none;stroke:#f70016;stroke-width:0.250004;stroke-linecap:square;stroke-miterlimit:0;stroke-dasharray:none;paint-order:stroke markers fill"
       d="m 120.14445,1090.2263 v 7.0228 h 3.00033 v 10.2506 h -3.00033 v 7.4331 h 3.00033 v 10.25 h -3.00033 v 7.4331 h 3.00033 v 10.2506 h -3.00033 v 7.0228 h 8.8222 v -2.9998 h 10.25002 v 2.9998 h 7.43313 v -2.9998 h 10.25054 v 2.9998 h 7.43314 v -2.9998 h 10.25002 v 2.9998 h 8.8222 v -7.0228 h -3.00033 v -10.2506 h 3.00033 v -7.4331 h -3.00033 v -10.25 h 3.00033 v -7.4331 h -3.00033 v -10.2506 h 3.00033 v -7.0228 h -8.82168 v 3.0003 h -10.25054 v -3.0003 h -7.43314 v 3.0003 h -10.25002 v -3.0003 h -7.43314 v 3.0003 h -10.25053 v -3.0003 z" />
    <path
       id="rect8731-6"
       style="fill:none;stroke:#f70016;stroke-width:0.249834;stroke-linecap:square;stroke-miterlimit:0;stroke-dasharray:none;paint-order:stroke markers fill"
       d="m 209.02578,1017.1707 v 2.9999 h -8.8222 v 4.3165 h 3.00034 v 10.25 h -3.00034 v 7.4331 h 3.00034 v 10.2506 h -3.00034 v 7.4326 h 3.00034 v 10.2505 h -3.00034 v 4.3166 h 8.8222 v 2.9998 h 10.25002 v -2.9998 h 7.43314 v 2.9998 h 10.25054 v -2.9998 h 7.43262 v 2.9998 h 10.25054 v -2.9998 h 5.82238 v -4.316 h 2.99982 v -10.2506 h -2.99982 v -7.4336 h 2.99982 v -10.2495 h -2.99982 v -7.4332 h 2.99982 v -10.251 h -2.99982 v -4.316 h -5.82238 v -2.9999 H 244.3921 v 2.9999 h -7.43262 v -2.9999 h -10.25054 v 2.9999 h -7.43314 v -2.9999 z" />
    <path
       id="rect8731-2-0"
       style="fill:none;stroke:#f70016;stroke-width:0.249834;stroke-linecap:square;stroke-miterlimit:0;stroke-dasharray:none;paint-order:stroke markers fill"
       d="m 209.8794,1086.3302 v 2.9999 h -5.82187 v 4.3165 h -2.99982 v 10.2505 h 2.99982 v 7.4332 h -2.99982 v 10.2499 h 2.99982 v 7.4332 h -2.99982 v 10.2505 h 2.99982 v 4.3166 h 5.82238 v 3.0003 h 10.25054 v -3.0003 h 7.43262 v 3.0003 h 10.25054 v -3.0003 h 7.43314 v 3.0003 h 10.25002 v -3.0003 h 8.8222 v -4.3166 h -3.00034 v -10.2505 h 3.00034 v -7.4332 h -3.00034 v -10.2499 h 3.00034 v -7.4332 h -3.00034 v -10.2505 h 3.00034 v -4.3165 h -8.8222 v -2.9999 h -10.25054 v 2.9999 h -7.43314 v -2.9999 h -10.25002 v 2.9999 h -7.43314 v -2.9999 z" />
    <path
       id="rect8731-3-15"
       style="fill:none;stroke:#f70016;stroke-width:0.249968;stroke-linecap:square;stroke-miterlimit:0;stroke-dasharray:none;paint-order:stroke markers fill"
       d="m 293.90262,1017.8261 v 2.9998 h -7.02283 v 4.316 h 3.00033 v 10.2505 h -3.00033 v 7.4332 h 3.00033 v 10.25 h -3.00033 v 7.4331 h 3.00033 v 10.2506 h -3.00033 v 4.3165 h 7.02283 v 2.9993 h 10.25053 v -2.9993 h 7.43314 v 2.9993 h 10.25002 v -2.9993 h 7.43314 v 2.9993 h 10.25054 v -2.9993 h 7.02284 v -4.316 h -3.00034 v -10.2505 h 3.00034 v -7.4332 h -3.00034 v -10.25 h 3.00034 v -7.4331 h -3.00034 v -10.2506 h 3.00034 v -4.3165 h -7.02284 v -2.9998 h -10.25054 v 2.9998 h -7.43314 v -2.9998 h -10.25002 v 2.9998 h -7.43314 v -2.9998 z" />
    <path
       id="rect8731-3-1-54"
       style="fill:none;stroke:#f70016;stroke-width:0.249968;stroke-linecap:square;stroke-miterlimit:0;stroke-dasharray:none;paint-order:stroke markers fill"
       d="m 292.68996,1087.4955 v 2.9998 h -4.02301 v 4.316 h -2.99981 v 10.2505 h 2.99981 v 7.4332 h -2.99981 v 10.25 h 2.99981 v 7.4331 h -2.99981 v 10.2505 h 2.99981 v 4.3166 h 4.02301 v 2.9998 h 10.25054 v -2.9998 h 7.43314 v 2.9998 h 10.25002 v -2.9998 h 7.43314 v 2.9998 h 10.25053 v -2.9998 h 4.02301 v -4.316 h 2.99982 v -10.2506 h -2.99982 v -7.4336 h 2.99982 v -10.2495 h -2.99982 v -7.4331 h 2.99982 v -10.2511 h -2.99982 v -4.316 h -4.02301 v -2.9998 H 328.0568 v 2.9998 h -7.43314 v -2.9998 h -10.25002 v 2.9998 h -7.43314 v -2.9998 z" />
    <path
       id="rect9631"
       style="fill:none;stroke:#f70016;stroke-width:0.25;stroke-linecap:square;stroke-miterlimit:0;stroke-dasharray:none;paint-order:stroke markers fill"
       d="m -517.49471,1172.106 v 5.8167 h 2.99982 v 10.2505 h -2.99982 v 7.4331 h 2.99982 v 10.25 h -2.99982 v 7.4332 h 2.99982 v 10.2505 h -2.99982 v 5.8162 h 253.24966 v -5.8162 h 3.00034 v -10.251 h -3.00034 v -7.4327 h 3.00034 v -10.25 h -3.00034 v -7.4336 h 3.00034 v -10.25 h -3.00034 v -5.8167 z" />
    <path
       id="rect9631-4"
       style="fill:none;stroke:#f70016;stroke-width:0.25;stroke-linecap:square;stroke-miterlimit:0;stroke-dasharray:none;paint-order:stroke markers fill"
       d="m -219.38348,1172.1377 v 5.8162 h 3.00034 v 10.2505 h -3.00034 v 7.4331 h 3.00034 v 10.2501 h -3.00034 v 7.4331 h 3.00034 v 10.2505 h -3.00034 v 5.8167 H 36.867035 v -5.8167 h -3.00033 v -10.2505 h 3.00033 v -7.4331 h -3.00033 v -10.2501 h 3.00033 v -7.4331 h -3.00033 v -10.2505 h 3.00033 v -5.8162 z" />
    <path
       id="rect9631-0"
       style="fill:none;stroke:#f70016;stroke-width:0.25;stroke-linecap:square;stroke-miterlimit:0;stroke-dasharray:none;paint-order:stroke markers fill"
       d="m -220.87342,1264.9335 v 5.8162 h -2.99982 v 10.2505 h 2.99982 v 7.4332 h -2.99982 v 10.25 h 2.99982 v 7.4331 h -2.99982 v 10.2511 h 2.99982 v 5.8161 H 29.376425 v -5.8161 h 3.00033 v -10.2511 h -3.00033 v -7.4331 h 3.00033 v -10.25 h -3.00033 v -7.4332 h 3.00033 v -10.2505 h -3.00033 v -5.8162 z" />
    <path
       id="rect9631-6"
       style="fill:none;stroke:#f70016;stroke-width:0.25;stroke-linecap:square;stroke-miterlimit:0;stroke-dasharray:none;paint-order:stroke markers fill"
       d="m -517.22157,1266.4303 v 5.8162 h -3.00034 v 10.2506 h 3.00034 v 7.4331 h -3.00034 v 10.25 h 3.00034 v 7.4332 h -3.00034 v 10.2505 h 3.00034 v 5.8167 h 253.24966 v -5.8167 h -3.00034 v -10.2505 h 3.00034 v -7.4327 h -3.00034 v -10.2505 h 3.00034 v -7.4331 h -3.00034 v -10.2501 h 3.00034 v -5.8167 z" />
    <rect
       style="fill:none;stroke:#f70016;stroke-width:0.249755;stroke-linecap:square;stroke-miterlimit:0;stroke-dasharray:none;paint-order:stroke markers fill"
       id="rect9914"
       width="300.25024"
       height="57.250244"
       x="-870.68042"
       y="1137.2955" />
    <rect
       style="fill:none;stroke:#f70016;stroke-width:0.249755;stroke-linecap:square;stroke-miterlimit:0;stroke-dasharray:none;paint-order:stroke markers fill"
       id="rect9914-4"
       width="300.25024"
       height="57.250244"
       x="-870.68042"
       y="1244.0142" />
    <rect
       style="fill:none;stroke:#f70016;stroke-width:0.249755;stroke-linecap:square;stroke-miterlimit:0;stroke-dasharray:none;paint-order:stroke markers fill"
       id="rect9914-8"
       width="300.25024"
       height="57.250244"
       x="-870.68042"
       y="1350.7327" />
    <rect
       style="fill:none;stroke:#f70016;stroke-width:0.249755;stroke-linecap:square;stroke-miterlimit:0;stroke-dasharray:none;paint-order:stroke markers fill"
       id="rect9914-6"
       width="300.25024"
       height="57.250244"
       x="-870.68042"
       y="1457.4513" />
    <rect
       style="fill:none;stroke:#f70016;stroke-width:0.250065;stroke-linecap:square;stroke-miterlimit:0;stroke-dasharray:none;paint-order:stroke markers fill"
       id="rect9964"
       width="400.24994"
       height="57.249935"
       x="442.93326"
       y="945.97955" />
    <rect
       style="fill:none;stroke:#f70016;stroke-width:0.250065;stroke-linecap:square;stroke-miterlimit:0;stroke-dasharray:none;paint-order:stroke markers fill"
       id="rect9964-4"
       width="400.24994"
       height="57.249935"
       x="442.93326"
       y="1067.984" />
    <rect
       style="fill:none;stroke:#f70016;stroke-width:0.250065;stroke-linecap:square;stroke-miterlimit:0;stroke-dasharray:none;paint-order:stroke markers fill"
       id="rect9964-2"
       width="400.24994"
       height="57.249935"
       x="442.93326"
       y="1189.9884" />
    <rect
       style="fill:none;stroke:#f70016;stroke-width:0.250065;stroke-linecap:square;stroke-miterlimit:0;stroke-dasharray:none;paint-order:stroke markers fill"
       id="rect9964-6"
       width="400.24994"
       height="57.249935"
       x="442.93326"
       y="1311.9929" />
    <rect
       style="fill:none;stroke:#f70016;stroke-width:0.25008;stroke-linecap:square;stroke-miterlimit:0;stroke-dasharray:none;paint-order:stroke markers fill"
       id="rect449"
       width="256.24991"
       height="256.24994"
       x="100.17418"
       y="1251.7589" />
  </g>
  <g
     inkscape:groupmode="layer"
     id="layer4"
     inkscape:label="Layer 2"
     style="display:inline"
     transform="translate(945.01079,346.014)" />
  <g
     inkscape:groupmode="layer"
     id="layer3"
     inkscape:label="Layer 1"
     style="display:inline"
     transform="translate(946.55844,329.43201)">
    <path
       id="rect18171-3"
       style="display:inline;fill:none;fill-opacity:1;stroke:#f70016;stroke-width:0.249996;stroke-linecap:square;stroke-linejoin:miter;stroke-miterlimit:0;stroke-dasharray:none;stroke-opacity:1;paint-order:stroke markers fill"
       d="m -100.61876,-292.7786 v 3.00034 h -7.31636 v 7.31635 h 2.99983 v 10.25053 h -2.99983 v 7.43314 h 2.99983 v 10.25002 h -2.99983 v 7.43314 h 2.99983 v 10.25054 h -2.99983 v 4.31601 h 7.31636 v 3.00034 h 10.250538 v -3.00034 h 7.433127 v 3.00034 h 10.25002 v -3.00034 h 7.43314 v 3.00034 h 10.25054 v -3.00034 h 7.31635 v -4.31653 h -3.00034 v -10.25054 h 3.00034 v -7.43313 h -3.00034 v -10.25003 h 3.00034 v -7.43313 h -3.00034 v -10.25054 h 3.00034 v -7.31583 h -7.31635 v -3.00034 h -10.25054 v 3.00034 h -7.43314 v -3.00034 h -10.25002 v 3.00034 h -7.433127 v -3.00034 z" />
    <path
       id="rect18171"
       style="display:inline;fill:none;fill-opacity:1;stroke:#f70016;stroke-width:0.249996;stroke-linecap:square;stroke-linejoin:miter;stroke-miterlimit:0;stroke-dasharray:none;stroke-opacity:1;paint-order:stroke markers fill"
       d="m -169.09643,-293.83572 v 3.00034 h -7.31635 v 7.31583 h 3.00034 v 10.25054 h -3.00034 v 7.43365 h 3.00034 v 10.25002 h -3.00034 v 7.43314 h 3.00034 v 10.25054 h -3.00034 v 4.31653 h 7.31635 v 2.99982 h 10.25054 v -2.99982 h 7.43314 v 2.99982 h 10.25002 v -2.99982 h 7.43314 v 2.99982 h 10.25053 v -2.99982 h 4.31602 v -4.31705 h 3.00033 v -10.25053 h -3.00033 v -7.43314 h 3.00033 v -10.24951 h -3.00033 v -7.43314 h 3.00033 v -10.25053 h -3.00033 v -7.31635 h -4.31602 v -3.00034 h -10.25053 v 3.00034 h -7.43314 v -3.00034 h -10.25002 v 3.00034 h -7.43314 v -3.00034 z" />
    <path
       id="rect18171-5"
       style="display:inline;fill:none;fill-opacity:1;stroke:#f70016;stroke-width:0.249996;stroke-linecap:square;stroke-linejoin:miter;stroke-miterlimit:0;stroke-dasharray:none;stroke-opacity:1;paint-order:stroke markers fill"
       d="m -97.404103,-223.79217 v 3.00033 h -4.316537 v 7.31636 h -2.99982 v 10.25053 h 2.99982 v 7.43314 h -2.99982 v 10.25002 h 2.99982 v 7.43314 h -2.99982 v 10.25054 h 2.99982 v 4.31601 h 4.316537 v 2.99981 h 10.250548 v -2.99981 h 7.43313 v 2.99981 h 10.25003 v -2.99981 h 7.43313 v 2.99981 h 10.25054 v -2.99981 h 4.31602 v -4.31601 h 3.00033 v -10.25106 h -3.00033 v -7.43314 h 3.00033 v -10.25002 h -3.00033 v -7.43313 h 3.00033 V -213.476 h -3.00033 v -7.31584 h -4.31602 v -3.00033 h -10.25054 v 3.00033 h -7.43313 v -3.00033 h -10.25003 v 3.00033 h -7.43313 v -3.00033 z" />
    <path
       id="rect18171-1"
       style="display:inline;fill:none;fill-opacity:1;stroke:#f70016;stroke-width:0.249996;stroke-linecap:square;stroke-linejoin:miter;stroke-miterlimit:0;stroke-dasharray:none;stroke-opacity:1;paint-order:stroke markers fill"
       d="m -170.54903,-224.0872 v 3.00033 h -4.31601 v 7.31635 h -3.00034 v 10.25054 h 3.00034 v 7.43313 h -3.00034 v 10.24951 h 3.00034 v 7.43314 h -3.00034 v 10.25053 h 3.00034 v 4.31654 h 4.31601 v 2.99981 h 10.25054 v -2.99981 h 7.43314 v 2.99981 h 10.25002 v -2.99981 h 7.43314 v 2.99981 h 10.25053 v -2.99981 h 7.31635 v -4.31602 h -3.00033 v -10.25054 h 3.00033 v -7.43313 h -3.00033 v -10.25003 h 3.00033 v -7.43365 h -3.00033 v -10.25053 h 3.00033 v -7.31584 h -7.31635 v -3.00033 h -10.25053 v 3.00033 h -7.43314 v -3.00033 h -10.25002 v 3.00033 h -7.43314 v -3.00033 z" />
    <path
       id="rect13008"
       style="display:inline;fill:none;fill-opacity:1;stroke:#f70016;stroke-width:0.249996;stroke-linecap:square;stroke-linejoin:miter;stroke-miterlimit:0;stroke-dasharray:none;stroke-opacity:1;paint-order:stroke markers fill"
       d="m -174.50204,-147.22679 v 7.31635 h 3.00033 v 10.25054 h -3.00033 v 7.43314 h 3.00033 v 10.25003 h -3.00033 v 7.43314 h 3.00033 v 10.250526 h -3.00033 v 7.31635 h 7.31635 v -3.00033 h 10.25053 v 3.00033 h 7.43314 v -3.00033 h 10.25002 v 3.00033 h 7.43314 v -3.00033 h 10.25054 v 3.00033 h 7.31635 v -7.31635 h -3.00034 v -10.250526 h 3.00034 v -7.43314 h -3.00034 v -10.25003 h 3.00034 v -7.43314 h -3.00034 v -10.25054 h 3.00034 v -7.31635 h -7.31635 v 3.00034 h -10.25054 v -3.00034 h -7.43314 v 3.00034 h -10.25002 v -3.00034 h -7.43314 v 3.00034 h -10.25053 v -3.00034 z" />
    <path
       id="rect18171-3-8"
       style="display:inline;fill:none;fill-opacity:1;stroke:#f70016;stroke-width:0.249996;stroke-linecap:square;stroke-linejoin:miter;stroke-miterlimit:0;stroke-dasharray:none;stroke-opacity:1;paint-order:stroke markers fill"
       d="m 59.371331,-296.3794 v 3.00034 h -7.31635 v 7.31635 h 2.99981 v 10.25054 h -2.99981 v 7.43314 h 2.99981 v 10.25002 h -2.99981 v 7.43313 h 2.99981 v 10.25054 h -2.99981 v 4.31602 h 7.31635 v 3.00033 h 10.25053 v -3.00033 h 7.43314 v 3.00033 h 10.25002 v -3.00033 h 7.433144 v 3.00033 H 104.9887 v -3.00033 h 7.31635 v -4.31654 h -3.00034 v -10.25053 h 3.00034 v -7.43314 h -3.00034 v -10.25002 h 3.00034 v -7.43314 h -3.00034 v -10.25054 h 3.00034 v -7.31583 h -7.31635 v -3.00034 H 94.738165 v 3.00034 h -7.433144 v -3.00034 h -10.25002 v 3.00034 h -7.43314 v -3.00034 z" />
    <path
       id="rect18171-9"
       style="display:inline;fill:none;fill-opacity:1;stroke:#f70016;stroke-width:0.249996;stroke-linecap:square;stroke-linejoin:miter;stroke-miterlimit:0;stroke-dasharray:none;stroke-opacity:1;paint-order:stroke markers fill"
       d="m -7.334539,-295.28384 v 3.00034 h -7.31635 v 7.31583 h 3.00034 v 10.25054 h -3.00034 v 7.43365 h 3.00034 v 10.25002 h -3.00034 v 7.43314 h 3.00034 v 10.25054 h -3.00034 v 4.31653 h 7.31635 v 2.99982 h 10.25054 v -2.99982 h 7.43314 v 2.99982 h 10.25002 v -2.99982 h 7.43314 v 2.99982 h 10.25053 v -2.99982 h 4.31602 v -4.31705 h 3.00033 v -10.25053 h -3.00033 v -7.43314 h 3.00033 v -10.24951 h -3.00033 v -7.43314 h 3.00033 v -10.25053 h -3.00033 v -7.31635 h -4.31602 v -3.00034 h -10.25053 v 3.00034 h -7.43314 v -3.00034 h -10.25002 v 3.00034 h -7.43314 v -3.00034 z" />
    <path
       id="rect18171-5-6"
       style="display:inline;fill:none;fill-opacity:1;stroke:#f70016;stroke-width:0.249996;stroke-linecap:square;stroke-linejoin:miter;stroke-miterlimit:0;stroke-dasharray:none;stroke-opacity:1;paint-order:stroke markers fill"
       d="m 60.065171,-224.44404 v 3.00033 h -4.31653 v 7.31636 h -2.99982 v 10.25053 h 2.99982 v 7.43314 h -2.99982 v 10.25002 h 2.99982 v 7.43314 h -2.99982 v 10.25054 h 2.99982 v 4.31601 h 4.31653 v 2.99981 h 10.25055 v -2.99981 h 7.43313 v 2.99981 h 10.25003 v -2.99981 h 7.433134 v 2.99981 h 10.250535 v -2.99981 h 4.31602 v -4.31601 h 3.00033 v -10.25106 h -3.00033 v -7.43314 h 3.00033 v -10.25002 h -3.00033 v -7.43313 h 3.00033 v -10.25054 h -3.00033 v -7.31584 h -4.31602 v -3.00033 H 95.432015 v 3.00033 h -7.433134 v -3.00033 h -10.25003 v 3.00033 h -7.43313 v -3.00033 z" />
    <path
       id="rect18171-1-5"
       style="display:inline;fill:none;fill-opacity:1;stroke:#f70016;stroke-width:0.249996;stroke-linecap:square;stroke-linejoin:miter;stroke-miterlimit:0;stroke-dasharray:none;stroke-opacity:1;paint-order:stroke markers fill"
       d="m -8.545459,-221.25116 v 3.00033 h -4.31601 v 7.31635 h -3.00034 v 10.25054 h 3.00034 v 7.43313 h -3.00034 v 10.24951 h 3.00034 v 7.43314 h -3.00034 v 10.25053 h 3.00034 v 4.31654 h 4.31601 v 2.99981 h 10.25054 v -2.99981 h 7.4331403 v 2.99981 H 19.388241 v -2.99981 h 7.43314 v 2.99981 h 10.25053 v -2.99981 h 7.31635 v -4.31602 h -3.00033 v -10.25054 h 3.00033 v -7.43313 h -3.00033 v -10.25003 h 3.00033 v -7.43365 h -3.00033 V -210.935 h 3.00033 v -7.31583 h -7.31635 v -3.00033 h -10.25053 v 3.00033 h -7.43314 v -3.00033 H 9.1382213 v 3.00033 H 1.705081 v -3.00033 z" />
    <path
       id="rect13008-0"
       style="display:inline;fill:none;fill-opacity:1;stroke:#f70016;stroke-width:0.249996;stroke-linecap:square;stroke-linejoin:miter;stroke-miterlimit:0;stroke-dasharray:none;stroke-opacity:1;paint-order:stroke markers fill"
       d="m -16.725539,-150.49275 v 7.31635 h 3.00033 v 10.25054 h -3.00033 v 7.43314 h 3.00033 v 10.25002 h -3.00033 v 7.43314 h 3.00033 v 10.250526 h -3.00033 v 7.31635 h 7.31635 v -3.00033 H 0.84134101 v 3.00033 H 8.2744813 v -3.00033 H 18.524501 v 3.00033 h 7.43314 v -3.00033 h 10.25054 v 3.00033 h 7.31635 v -7.31635 h -3.00034 v -10.250526 h 3.00034 v -7.43314 h -3.00034 v -10.25002 h 3.00034 v -7.43314 h -3.00034 v -10.25054 h 3.00034 v -7.31635 h -7.31635 v 3.00034 h -10.25054 v -3.00034 h -7.43314 v 3.00034 H 8.2744813 v -3.00034 H 0.84134101 v 3.00034 H -9.409189 v -3.00034 z" />
    <path
       id="rect18171-3-8-4"
       style="display:inline;fill:none;fill-opacity:1;stroke:#f70016;stroke-width:0.249996;stroke-linecap:square;stroke-linejoin:miter;stroke-miterlimit:0;stroke-dasharray:none;stroke-opacity:1;paint-order:stroke markers fill"
       d="m 218.20284,-292.34131 v 3.00034 h -7.31635 v 7.31635 h 2.99981 v 10.25054 h -2.99981 v 7.43314 h 2.99981 v 10.25002 h -2.99981 v 7.43313 h 2.99981 v 10.25054 h -2.99981 v 4.31602 h 7.31635 v 3.00033 h 10.25053 v -3.00033 h 7.43314 v 3.00033 h 10.25002 v -3.00033 h 7.43314 v 3.00033 h 10.25054 v -3.00033 h 7.31635 v -4.31654 h -3.00034 v -10.25053 h 3.00034 v -7.43314 h -3.00034 v -10.25002 h 3.00034 v -7.43314 h -3.00034 v -10.25054 h 3.00034 v -7.31583 h -7.31635 v -3.00034 h -10.25054 v 3.00034 h -7.43314 v -3.00034 h -10.25002 v 3.00034 h -7.43314 v -3.00034 z" />
    <path
       id="rect18171-9-3"
       style="display:inline;fill:none;fill-opacity:1;stroke:#f70016;stroke-width:0.249996;stroke-linecap:square;stroke-linejoin:miter;stroke-miterlimit:0;stroke-dasharray:none;stroke-opacity:1;paint-order:stroke markers fill"
       d="m 151.49697,-291.24575 v 3.00034 h -7.31635 v 7.31583 h 3.00034 v 10.25054 h -3.00034 v 7.43365 h 3.00034 v 10.25002 h -3.00034 v 7.43314 h 3.00034 v 10.25054 h -3.00034 v 4.31653 h 7.31635 v 2.99982 h 10.25054 v -2.99982 h 7.43314 v 2.99982 h 10.25002 v -2.99982 h 7.43314 v 2.99982 h 10.25053 v -2.99982 h 4.31602 v -4.31705 h 3.00033 v -10.25053 h -3.00033 v -7.43314 h 3.00033 v -10.24951 h -3.00033 v -7.43314 h 3.00033 v -10.25053 h -3.00033 v -7.31635 h -4.31602 v -3.00034 h -10.25053 v 3.00034 h -7.43314 v -3.00034 h -10.25002 v 3.00034 h -7.43314 v -3.00034 z" />
    <path
       id="rect18171-5-6-7"
       style="display:inline;fill:none;fill-opacity:1;stroke:#f70016;stroke-width:0.249996;stroke-linecap:square;stroke-linejoin:miter;stroke-miterlimit:0;stroke-dasharray:none;stroke-opacity:1;paint-order:stroke markers fill"
       d="m 218.89668,-220.40595 v 3.00033 h -4.31653 v 7.31636 h -2.99982 v 10.25053 h 2.99982 v 7.43314 h -2.99982 v 10.25002 h 2.99982 v 7.43314 h -2.99982 v 10.25054 h 2.99982 v 4.31601 h 4.31653 v 2.99981 h 10.25055 v -2.99981 h 7.43313 v 2.99981 h 10.25003 v -2.99981 h 7.43313 v 2.99981 h 10.25054 v -2.99981 h 4.31602 v -4.31601 h 3.00033 v -10.25106 h -3.00033 v -7.43314 h 3.00033 v -10.25002 h -3.00033 v -7.43313 h 3.00033 v -10.25054 h -3.00033 v -7.31584 h -4.31602 v -3.00033 h -10.25054 v 3.00033 h -7.43313 v -3.00033 h -10.25003 v 3.00033 h -7.43313 v -3.00033 z" />
    <path
       id="rect18171-1-5-9"
       style="display:inline;fill:none;fill-opacity:1;stroke:#f70016;stroke-width:0.249996;stroke-linecap:square;stroke-linejoin:miter;stroke-miterlimit:0;stroke-dasharray:none;stroke-opacity:1;paint-order:stroke markers fill"
       d="m 150.28605,-217.21307 v 3.00033 h -4.31601 v 7.31635 h -3.00034 v 10.25054 h 3.00034 v 7.43313 h -3.00034 v 10.24951 h 3.00034 v 7.43314 h -3.00034 v 10.25053 h 3.00034 v 4.31654 h 4.31601 v 2.99981 h 10.25054 v -2.99981 h 7.43314 v 2.99981 h 10.25002 v -2.99981 h 7.43314 v 2.99981 h 10.25053 v -2.99981 h 7.31635 v -4.31602 h -3.00033 v -10.25054 h 3.00033 v -7.43313 h -3.00033 v -10.25003 h 3.00033 v -7.43365 h -3.00033 v -10.25054 h 3.00033 v -7.31583 h -7.31635 v -3.00033 h -10.25053 v 3.00033 h -7.43314 v -3.00033 h -10.25002 v 3.00033 h -7.43314 v -3.00033 z" />
    <path
       id="rect13008-0-3"
       style="display:inline;fill:none;fill-opacity:1;stroke:#f70016;stroke-width:0.249996;stroke-linecap:square;stroke-linejoin:miter;stroke-miterlimit:0;stroke-dasharray:none;stroke-opacity:1;paint-order:stroke markers fill"
       d="m 141.79875,-143.84057 v 7.31635 h 3.00033 v 10.25054 h -3.00033 v 7.43314 h 3.00033 v 10.25002 h -3.00033 v 7.43314 h 3.00033 v 10.250526 h -3.00033 v 7.31635 h 7.31635 v -3.00033 h 10.25053 v 3.00033 h 7.43314 v -3.00033 h 10.25002 v 3.00033 h 7.43314 v -3.00033 h 10.25054 v 3.00033 h 7.31635 v -7.31635 h -3.00034 v -10.250526 h 3.00034 v -7.43314 h -3.00034 v -10.25002 h 3.00034 v -7.43314 h -3.00034 v -10.25054 h 3.00034 v -7.31635 h -7.31635 v 3.00034 h -10.25054 v -3.00034 h -7.43314 v 3.00034 h -10.25002 v -3.00034 h -7.43314 v 3.00034 H 149.1151 v -3.00034 z" />
    <path
       id="rect18171-3-8-9"
       style="display:inline;fill:none;fill-opacity:1;stroke:#f70016;stroke-width:0.249996;stroke-linecap:square;stroke-linejoin:miter;stroke-miterlimit:0;stroke-dasharray:none;stroke-opacity:1;paint-order:stroke markers fill"
       d="m 379.7264,-293.68734 v 3.00033 h -7.31635 v 7.31635 h 2.99981 v 10.25055 h -2.99981 v 7.43313 h 2.99981 v 10.25002 h -2.99981 v 7.43313 h 2.99981 v 10.25054 h -2.99981 v 4.31602 h 7.31635 v 3.00033 h 10.25053 v -3.00033 h 7.43314 v 3.00033 h 10.25002 v -3.00033 h 7.43314 v 3.00033 h 10.25054 v -3.00033 h 7.31635 v -4.31654 h -3.00034 v -10.25053 h 3.00034 v -7.43314 h -3.00034 v -10.25002 h 3.00034 v -7.43313 h -3.00034 v -10.25054 h 3.00034 v -7.31584 h -7.31635 v -3.00033 h -10.25054 v 3.00033 h -7.43314 v -3.00033 h -10.25002 v 3.00033 h -7.43314 v -3.00033 z" />
    <path
       id="rect18171-9-2"
       style="display:inline;fill:none;fill-opacity:1;stroke:#f70016;stroke-width:0.249996;stroke-linecap:square;stroke-linejoin:miter;stroke-miterlimit:0;stroke-dasharray:none;stroke-opacity:1;paint-order:stroke markers fill"
       d="m 313.02053,-292.59179 v 3.00034 h -7.31635 v 7.31583 h 3.00034 v 10.25054 h -3.00034 v 7.43365 h 3.00034 v 10.25002 h -3.00034 v 7.43314 h 3.00034 v 10.25054 h -3.00034 v 4.31653 h 7.31635 v 2.99982 h 10.25054 v -2.99982 h 7.43314 v 2.99982 h 10.25002 v -2.99982 h 7.43314 v 2.99982 h 10.25053 v -2.99982 h 4.31602 v -4.31705 h 3.00033 v -10.25053 h -3.00033 v -7.43314 h 3.00033 v -10.24951 h -3.00033 v -7.43313 h 3.00033 v -10.25054 h -3.00033 v -7.31635 h -4.31602 v -3.00034 h -10.25053 v 3.00034 h -7.43314 v -3.00034 h -10.25002 v 3.00034 h -7.43314 v -3.00034 z" />
    <path
       id="rect18171-5-6-1"
       style="display:inline;fill:none;fill-opacity:1;stroke:#f70016;stroke-width:0.249996;stroke-linecap:square;stroke-linejoin:miter;stroke-miterlimit:0;stroke-dasharray:none;stroke-opacity:1;paint-order:stroke markers fill"
       d="m 380.42024,-221.75198 v 3.00033 h -4.31653 v 7.31636 h -2.99982 v 10.25053 h 2.99982 v 7.43314 h -2.99982 v 10.25002 h 2.99982 v 7.43313 h -2.99982 v 10.25054 h 2.99982 v 4.31602 h 4.31653 v 2.99981 h 10.25055 v -2.99981 h 7.43313 v 2.99981 h 10.25003 v -2.99981 h 7.43313 v 2.99981 h 10.25054 v -2.99981 h 4.31602 v -4.31602 h 3.00033 v -10.25106 h -3.00033 v -7.43314 h 3.00033 v -10.25002 h -3.00033 v -7.43313 h 3.00033 v -10.25054 h -3.00033 v -7.31584 h -4.31602 v -3.00033 h -10.25054 v 3.00033 h -7.43313 v -3.00033 h -10.25003 v 3.00033 h -7.43313 v -3.00033 z" />
    <path
       id="rect18171-1-5-3"
       style="display:inline;fill:none;fill-opacity:1;stroke:#f70016;stroke-width:0.249996;stroke-linecap:square;stroke-linejoin:miter;stroke-miterlimit:0;stroke-dasharray:none;stroke-opacity:1;paint-order:stroke markers fill"
       d="m 311.80961,-218.55911 v 3.00033 h -4.31601 v 7.31635 h -3.00034 v 10.25054 h 3.00034 v 7.43313 h -3.00034 v 10.24952 h 3.00034 v 7.43314 h -3.00034 v 10.25053 h 3.00034 v 4.31654 h 4.31601 v 2.99981 h 10.25054 v -2.99981 h 7.43314 v 2.99981 h 10.25002 v -2.99981 h 7.43314 v 2.99981 h 10.25053 v -2.99981 h 7.31635 v -4.31602 H 361.743 v -10.25054 h 3.00033 v -7.43313 H 361.743 v -10.25003 h 3.00033 v -7.43365 H 361.743 v -10.25055 h 3.00033 v -7.31583 h -7.31635 v -3.00033 h -10.25053 v 3.00033 h -7.43314 v -3.00033 h -10.25002 v 3.00033 h -7.43314 v -3.00033 z" />
    <path
       id="rect13008-0-35"
       style="display:inline;fill:none;fill-opacity:1;stroke:#f70016;stroke-width:0.249996;stroke-linecap:square;stroke-linejoin:miter;stroke-miterlimit:0;stroke-dasharray:none;stroke-opacity:1;paint-order:stroke markers fill"
       d="m 303.32231,-145.18661 v 7.31636 h 3.00033 v 10.25054 h -3.00033 v 7.43313 h 3.00033 v 10.25002 h -3.00033 v 7.43314 h 3.00033 v 10.250526 h -3.00033 v 7.31636 h 7.31635 v -3.00033 h 10.25053 v 3.00033 h 7.43314 v -3.00033 h 10.25002 v 3.00033 h 7.43314 v -3.00033 h 10.25054 v 3.00033 h 7.31635 v -7.31636 h -3.00034 v -10.250526 h 3.00034 v -7.43314 h -3.00034 v -10.25002 h 3.00034 v -7.43313 h -3.00034 v -10.25054 h 3.00034 v -7.31636 h -7.31635 v 3.00035 h -10.25054 v -3.00035 h -7.43314 v 3.00035 h -10.25002 v -3.00035 h -7.43314 v 3.00035 h -10.25053 v -3.00035 z" />
    <rect
       style="fill:none;stroke:#f70016;stroke-width:0.25;stroke-linecap:square;stroke-miterlimit:0;paint-order:stroke markers fill"
       id="rect385"
       width="580.25"
       height="57.25"
       x="-1005.5868"
       y="50.280766"
       transform="scale(-1)" />
    <rect
       style="display:inline;fill:none;stroke:#f70016;stroke-width:0.25;stroke-linecap:square;stroke-miterlimit:0;paint-order:stroke markers fill"
       id="rect385-1"
       width="580.25"
       height="57.25"
       x="428.38156"
       y="-11.756733" />
    <rect
       style="display:inline;fill:none;stroke:#f70016;stroke-width:0.25;stroke-linecap:square;stroke-miterlimit:0;paint-order:stroke markers fill"
       id="rect385-4"
       width="580.25"
       height="57.25"
       x="428.61838"
       y="74.839928" />
    <rect
       style="display:inline;fill:none;stroke:#f70016;stroke-width:0.25;stroke-linecap:square;stroke-miterlimit:0;paint-order:stroke markers fill"
       id="rect385-3"
       width="580.25"
       height="57.25"
       x="427.87045"
       y="169.25687" />
  </g>
  <g
     inkscape:groupmode="layer"
     id="layer2"
     inkscape:label="Layer 5"
     style="display:inline"
     transform="translate(3.9979482e-6,-28.380182)">
    <path
       id="rect29871"
       style="display:inline;fill:none;fill-opacity:1;stroke:#f70016;stroke-width:0.249828;stroke-linecap:square;stroke-linejoin:miter;stroke-miterlimit:0;stroke-dasharray:none;stroke-opacity:1;paint-order:stroke markers fill"
       d="m 117.88422,1206.4533 v 3.0003 h 16.413 v -3.0003 z m 26.6635,0 v 3.0003 h 7.4332 v -3.0003 z m 17.6832,0 v 3.0003 h 7.4331 v -3.0003 z m 17.6837,0 v 3.0003 h 15.6517 v -3.0003 z m 25.9022,0 v 3.0003 h 7.4332 v -3.0003 z m 17.6832,0 v 3.0003 h 7.4331 v -3.0003 z m 17.6837,0 v 3.0003 h 15.6517 v -3.0003 z m 25.9023,0 v 3.0003 h 7.4331 v -3.0003 z m 17.6831,0 v 3.0003 h 7.4332 v -3.0003 z m 17.6837,0 v 3.0003 h 15.6518 v -3.0003 z m 25.9023,0 v 3.0003 h 7.4331 v -3.0003 z m 17.6832,0 v 3.0003 h 7.4331 v -3.0003 z m 17.6836,0 v 3.0003 h 16.4125 v -3.0003 z" />
    <path
       id="rect29871-1"
       style="display:inline;fill:none;fill-opacity:1;stroke:#f70016;stroke-width:0.249828;stroke-linecap:square;stroke-linejoin:miter;stroke-miterlimit:0;stroke-dasharray:none;stroke-opacity:1;paint-order:stroke markers fill"
       d="m 247.08252,861.62919 v 3.00034 h 16.4129 v -3.00034 z m 26.6635,0 v 3.00034 h 7.4331 v -3.00034 z m 17.6831,0 v 3.00034 h 7.4332 v -3.00034 z m 17.6837,0 v 3.00034 h 15.6518 v -3.00034 z m 25.9023,0 v 3.00034 h 7.4331 v -3.00034 z m 17.6832,0 v 3.00034 h 7.4331 v -3.00034 z m 17.6836,0 v 3.00034 h 15.6518 v -3.00034 z m 25.9023,0 v 3.00034 h 7.4332 v -3.00034 z m 17.6832,0 v 3.00034 h 7.4331 v -3.00034 z m 17.6837,0 v 3.00034 h 15.6517 v -3.00034 z m 25.9023,0 v 3.00034 h 7.4331 v -3.00034 z m 17.6831,0 v 3.00034 h 7.4332 v -3.00034 z m 17.6837,0 v 3.00034 h 16.4124 v -3.00034 z" />
    <path
       id="rect9752-3"
       style="display:inline;fill:none;stroke:#f70016;stroke-width:0.249638;stroke-linecap:square;stroke-miterlimit:0;stroke-dasharray:none;paint-order:stroke markers fill"
       d="m 340.51934,1300.4182 v 5.8167 h 3.0003 v -5.8167 z m 0,16.0672 v 7.4332 h 3.0003 v -7.4332 z m 0,17.6832 v 7.4331 h 3.0003 v -7.4331 z m 0,17.6837 v 5.8167 h 3.0003 v -5.8167 z" />
    <path
       id="rect9752-8-5"
       style="display:inline;fill:none;stroke:#f70016;stroke-width:0.249638;stroke-linecap:square;stroke-miterlimit:0;stroke-dasharray:none;paint-order:stroke markers fill"
       d="m 329.58044,1299.4164 v 5.8167 h 3.0003 v -5.8167 z m 0,16.0672 v 7.4332 h 3.0003 v -7.4332 z m 0,17.6832 v 7.4331 h 3.0003 v -7.4331 z m 0,17.6837 v 5.8167 h 3.0003 v -5.8167 z" />
    <path
       id="path10289-6-9-0-3-7-6-4-6"
       style="display:inline;fill:none;fill-opacity:1;stroke:#f70016;stroke-width:0.249523;stroke-linecap:square;stroke-linejoin:miter;stroke-miterlimit:0;stroke-dasharray:none;stroke-opacity:1;paint-order:stroke markers fill"
       d="m 566.9599,1278.8806 h -3.0004 v 10.2505 h 3.0004 z m 0,17.6836 h -3.0004 v 10.2501 h 3.0004 z m 0,17.6832 h -3.0004 v 10.2505 h 3.0004 z" />
    <path
       id="path10289-6-9-0-3-7-6-4-69"
       style="display:inline;fill:none;fill-opacity:1;stroke:#f70016;stroke-width:0.249523;stroke-linecap:square;stroke-linejoin:miter;stroke-miterlimit:0;stroke-dasharray:none;stroke-opacity:1;paint-order:stroke markers fill"
       d="m 262.96334,1374.1307 h -3.0004 v 10.2505 h 3.0004 z m 0,17.6836 h -3.0004 v 10.2501 h 3.0004 z m 0,17.6832 h -3.0004 v 10.2505 h 3.0004 z" />
    <path
       id="path10289-6-9-0-3-7-6-4-69-7"
       style="display:inline;fill:none;fill-opacity:1;stroke:#f70016;stroke-width:0.249523;stroke-linecap:square;stroke-linejoin:miter;stroke-miterlimit:0;stroke-dasharray:none;stroke-opacity:1;paint-order:stroke markers fill"
       d="m 274.93964,1373.2645 h -3.0004 v 10.2505 h 3.0004 z m 0,17.6836 h -3.0004 v 10.2501 h 3.0004 z m 0,17.6832 h -3.0004 v 10.2505 h 3.0004 z" />
    <path
       id="path10289-6-9-0-3-7-6-9-0"
       style="display:inline;fill:none;fill-opacity:1;stroke:#f70016;stroke-width:0.249523;stroke-linecap:square;stroke-linejoin:miter;stroke-miterlimit:0;stroke-dasharray:none;stroke-opacity:1;paint-order:stroke markers fill"
       d="m 497.52512,1109.288 v -3.0003 h -10.2505 v 3.0003 z m -17.6836,0 v -3.0003 h -10.25 v 3.0003 z m -17.6832,0 v -3.0003 h -10.2505 v 3.0003 z" />
    <path
       id="rect18408-1-4"
       style="display:inline;fill:none;fill-opacity:1;stroke:#f70016;stroke-width:0.249769;stroke-linecap:square;stroke-linejoin:miter;stroke-miterlimit:0;stroke-dasharray:none;stroke-opacity:1;paint-order:stroke markers fill"
       d="m 428.49912,1254.7658 v 7.3164 h 3.0004 v -7.3164 z m 0,17.5669 v 7.4332 h 3.0004 v -7.4332 z m 0,17.6832 v 7.4331 h 3.0004 v -7.4331 z m 0,17.6837 v 7.3163 h 3.0004 v -7.3164 z" />
    <path
       id="rect18408-1-4-3"
       style="display:inline;fill:none;fill-opacity:1;stroke:#f70016;stroke-width:0.249769;stroke-linecap:square;stroke-linejoin:miter;stroke-miterlimit:0;stroke-dasharray:none;stroke-opacity:1;paint-order:stroke markers fill"
       d="m 491.3691,1271.5642 v 7.3164 h 3.0004 v -7.3164 z m 0,17.5669 v 7.4332 h 3.0004 v -7.4332 z m 0,17.6832 v 7.4331 h 3.0004 v -7.4331 z m 0,17.6837 v 7.3163 h 3.0004 v -7.3164 z" />
    <path
       id="rect18408-1-4-8"
       style="display:inline;fill:none;fill-opacity:1;stroke:#f70016;stroke-width:0.249769;stroke-linecap:square;stroke-linejoin:miter;stroke-miterlimit:0;stroke-dasharray:none;stroke-opacity:1;paint-order:stroke markers fill"
       d="m 499.52582,948.88549 v 7.31636 h 3.0003 v -7.31636 z m 0,17.56689 v 7.43314 h 3.0003 v -7.43314 z m 0,17.68316 v 7.43313 h 3.0003 v -7.43313 z m 0,17.68366 v 7.3164 h 3.0003 v -7.3164 z" />
    <path
       id="path10289-6-9-0-3-7-9-6-7-7-0"
       style="display:inline;fill:none;fill-opacity:1;stroke:#f70016;stroke-width:0.249523;stroke-linecap:square;stroke-linejoin:miter;stroke-miterlimit:0;stroke-dasharray:none;stroke-opacity:1;paint-order:stroke markers fill"
       d="m 464.67452,1032.759 v 3.0003 h 10.2505 v -3.0003 z m 17.6837,0 v 3.0003 h 10.25 v -3.0003 z m 17.6831,0 v 3.0003 h 10.2505 v -3.0003 z m 25.9023,0 v 3.0003 h 10.2505 v -3.0003 z m 17.6837,0 v 3.0003 h 10.25 v -3.0003 z m 17.6831,0 v 3.0003 h 10.2506 v -3.0003 z m 25.9023,0 v 3.0003 h 10.2506 v -3.0003 z m 17.6837,0 v 3.0003 h 10.25 v -3.0003 z m 17.6832,0 v 3.0003 h 10.2505 v -3.0003 z m 25.9023,0 v 3.0003 h 10.2505 v -3.0003 z m 17.6836,0 v 3.0003 h 10.2501 v -3.0003 z m 17.6832,0 v 3.0003 h 10.2505 v -3.0003 z" />
    <path
       id="path10289-6-9-0-3-7-9-6-7-7-0-6"
       style="display:inline;fill:none;fill-opacity:1;stroke:#f70016;stroke-width:0.249523;stroke-linecap:square;stroke-linejoin:miter;stroke-miterlimit:0;stroke-dasharray:none;stroke-opacity:1;paint-order:stroke markers fill"
       d="m 257.73742,934.63452 v 3.00033 h 10.2505 v -3.00033 z m 17.6837,0 v 3.00033 h 10.25 v -3.00033 z m 17.6831,0 v 3.00033 h 10.2506 v -3.00033 z m 25.9023,0 v 3.00033 h 10.2506 v -3.00033 z m 17.6837,0 v 3.00033 h 10.25 v -3.00033 z m 17.6832,0 v 3.00033 h 10.2505 v -3.00033 z m 25.9023,0 v 3.00033 h 10.2505 v -3.00033 z m 17.6836,0 v 3.00033 h 10.2501 v -3.00033 z m 17.6832,0 v 3.00033 h 10.2505 v -3.00033 z m 25.9023,0 v 3.00033 h 10.2505 v -3.00033 z m 17.6837,0 v 3.00033 h 10.25 v -3.00033 z m 17.6831,0 v 3.00033 h 10.2506 v -3.00033 z" />
    <path
       id="rect18408-1-4-4"
       style="display:inline;fill:none;fill-opacity:1;stroke:#f70016;stroke-width:0.249769;stroke-linecap:square;stroke-linejoin:miter;stroke-miterlimit:0;stroke-dasharray:none;stroke-opacity:1;paint-order:stroke markers fill"
       d="m 653.66112,1149.7977 h -7.3163 v 3.0003 h 7.3163 z m -17.5669,0 h -7.4331 v 3.0003 h 7.4331 z m -17.6831,0 h -7.4332 v 3.0003 h 7.4332 z m -17.6837,0 h -7.3164 v 3.0003 h 7.3164 z" />
    <path
       id="path10289-6-9-0-3-7-6-9-0-4-0-09"
       style="display:inline;fill:none;fill-opacity:1;stroke:#f70016;stroke-width:0.249592;stroke-linecap:square;stroke-linejoin:miter;stroke-miterlimit:0;stroke-dasharray:none;stroke-opacity:1;paint-order:stroke markers fill"
       d="m 426.60942,1169.3663 h 2.7504 v -10.2573 h -2.7504 z m 0,-17.6953 h 2.7504 v -10.2568 h -2.7504 z m 0,-17.6949 h 2.7504 v -10.2573 h -2.7504 z" />
    <path
       id="path10289-6-9-0-3-7-6-9-0-4-0-0-2-7-8"
       style="display:inline;fill:none;fill-opacity:1;stroke:#f70016;stroke-width:0.249592;stroke-linecap:square;stroke-linejoin:miter;stroke-miterlimit:0;stroke-dasharray:none;stroke-opacity:1;paint-order:stroke markers fill"
       d="m 235.99792,1071.4213 v 2.7504 h 10.2572 v -2.7504 z m 17.6952,0 v 2.7504 h 10.2568 v -2.7504 z m 17.6949,0 v 2.7504 h 10.2573 v -2.7504 z" />
    <path
       id="path10289-6-9-0-3-7-6-9-0-4-0-0-2-7"
       style="display:inline;fill:none;fill-opacity:1;stroke:#f70016;stroke-width:0.249592;stroke-linecap:square;stroke-linejoin:miter;stroke-miterlimit:0;stroke-dasharray:none;stroke-opacity:1;paint-order:stroke markers fill"
       d="m 162.96582,922.74964 v 2.7504 h 10.2573 v -2.7504 z m 17.6953,0 v 2.7504 h 10.2568 v -2.7504 z m 17.6948,0 v 2.7504 h 10.2573 v -2.7504 z" />
    <path
       id="rect18408-1-4-4-9-5-8"
       style="display:inline;fill:none;fill-opacity:1;stroke:#f70016;stroke-width:0.24953;stroke-linecap:square;stroke-linejoin:miter;stroke-miterlimit:0;stroke-dasharray:none;stroke-opacity:1;paint-order:stroke markers fill"
       d="m 355.63502,1008.04 v 7.3164 h 2.7505 v -7.3164 z m 0,17.567 v 7.4332 h 2.7505 v -7.4332 z m 0,17.6833 v 7.4332 h 2.7505 v -7.4332 z m 0,17.6838 v 7.3164 h 2.7505 v -7.3164 z" />
    <path
       id="rect18408-1-4-4-9-0"
       style="display:inline;fill:none;fill-opacity:1;stroke:#f70016;stroke-width:0.249769;stroke-linecap:square;stroke-linejoin:miter;stroke-miterlimit:0;stroke-dasharray:none;stroke-opacity:1;paint-order:stroke markers fill"
       d="m 321.38952,1094.8147 h 7.3163 v -3.0003 h -7.3163 z m 17.5669,0 h 7.4331 v -3.0003 h -7.4331 z m 17.6831,0 h 7.4332 v -3.0003 h -7.4332 z m 17.6837,0 h 7.3164 v -3.0003 h -7.3164 z" />
    <path
       id="rect18408-1-4-4-9-5"
       style="display:inline;fill:none;fill-opacity:1;stroke:#f70016;stroke-width:0.24953;stroke-linecap:square;stroke-linejoin:miter;stroke-miterlimit:0;stroke-dasharray:none;stroke-opacity:1;paint-order:stroke markers fill"
       d="m 243.27002,979.54305 h 7.3164 v -2.75048 h -7.3164 z m 17.567,0 h 7.4332 v -2.75048 h -7.4332 z m 17.6833,0 h 7.4331 v -2.75048 h -7.4331 z m 17.6838,0 h 7.3163 v -2.75048 h -7.3163 z" />
    <path
       id="rect18408-1-4-4-9"
       style="display:inline;fill:none;fill-opacity:1;stroke:#f70016;stroke-width:0.249769;stroke-linecap:square;stroke-linejoin:miter;stroke-miterlimit:0;stroke-dasharray:none;stroke-opacity:1;paint-order:stroke markers fill"
       d="m 315.56502,1123.6661 h -7.3164 v 3.0003 h 7.3164 z m -17.5669,0 h -7.4331 v 3.0003 h 7.4331 z m -17.6831,0 h -7.4332 v 3.0003 h 7.4332 z m -17.6837,0 h -7.3164 v 3.0003 h 7.3164 z" />
    <path
       id="rect29871-10"
       style="display:inline;fill:none;fill-opacity:1;stroke:#f70016;stroke-width:0.249828;stroke-linecap:square;stroke-linejoin:miter;stroke-miterlimit:0;stroke-dasharray:none;stroke-opacity:1;paint-order:stroke markers fill"
       d="m 90.233323,883.81354 h -3.0003 v 16.41295 h 3.0003 z m 0,26.66349 h -3.0003 v 7.43313 h 3.0003 z m 0,17.68315 h -3.0003 v 7.43314 h 3.0003 z m 0,17.68368 h -3.0003 v 15.65176 h 3.0003 z m 0,25.90229 h -3.0003 v 7.43314 h 3.0003 z m 0,17.68316 h -3.0003 v 7.43314 h 3.0003 z m 0,17.68369 h -3.0003 v 15.6517 h 3.0003 z m 0,25.9023 h -3.0003 v 7.4331 h 3.0003 z m 0,17.6831 h -3.0003 v 7.4332 h 3.0003 z m 0,17.6837 h -3.0003 v 15.6518 h 3.0003 z m 0,25.9023 h -3.0003 v 7.4331 h 3.0003 z m 0,17.6832 h -3.0003 v 7.4331 h 3.0003 z m 0,17.6836 h -3.0003 v 16.4125 h 3.0003 z" />
    <path
       id="path10289-6-9-0-3-7-9-6-7-7-0-64-7"
       style="display:inline;fill:none;fill-opacity:1;stroke:#f70016;stroke-width:0.249523;stroke-linecap:square;stroke-linejoin:miter;stroke-miterlimit:0;stroke-dasharray:none;stroke-opacity:1;paint-order:stroke markers fill"
       d="m 367.55122,1220.5323 v 3.0004 h 10.2505 v -3.0004 z m 17.6837,0 v 3.0004 h 10.25 v -3.0004 z m 17.6831,0 v 3.0004 h 10.2506 v -3.0004 z m 25.9023,0 v 3.0004 h 10.2505 v -3.0004 z m 17.6837,0 v 3.0004 h 10.25 v -3.0004 z m 17.6831,0 v 3.0004 h 10.2506 v -3.0004 z m 25.9023,0 v 3.0004 h 10.2506 v -3.0004 z m 17.6837,0 v 3.0004 h 10.25 v -3.0004 z m 17.6832,0 v 3.0004 h 10.2505 v -3.0004 z m 25.9023,0 v 3.0004 h 10.2505 v -3.0004 z m 17.6836,0 v 3.0004 h 10.2501 v -3.0004 z m 17.6832,0 v 3.0004 h 10.2505 v -3.0004 z" />
    <path
       id="path10289-6-9-0-3-7-9-6-7-7-0-64-8-2-8"
       style="display:inline;fill:none;fill-opacity:1;stroke:#f70016;stroke-width:0.249533;stroke-linecap:square;stroke-linejoin:miter;stroke-miterlimit:0;stroke-dasharray:none;stroke-opacity:1;paint-order:stroke markers fill"
       d="m 140.23462,1270.4724 v 2.7505 h 10.2505 v -2.7505 z m 17.6837,0 v 2.7505 h 10.25 v -2.7505 z m 17.6831,0 v 2.7505 h 10.2505 v -2.7505 z m 25.9022,0 v 2.7505 h 10.2506 v -2.7505 z m 17.6837,0 v 2.7505 h 10.25 v -2.7505 z m 17.6831,0 v 2.7505 h 10.2506 v -2.7505 z m 25.9023,0 v 2.7505 h 10.2505 v -2.7505 z m 17.6836,0 v 2.7505 h 10.2501 v -2.7505 z m 17.6832,0 v 2.7505 h 10.2505 v -2.7505 z m 25.9022,0 v 2.7505 h 10.2506 v -2.7505 z m 17.6837,0 v 2.7505 h 10.25 v -2.7505 z m 17.6831,0 v 2.7505 h 10.2505 v -2.7505 z" />
    <path
       id="path10289-6-9-0-3-7-6-4-6-9-3-8-2"
       style="display:inline;fill:none;fill-opacity:1;stroke:#f70016;stroke-width:0.249523;stroke-linecap:square;stroke-linejoin:miter;stroke-miterlimit:0;stroke-dasharray:none;stroke-opacity:1;paint-order:stroke markers fill"
       d="m 540.594,1358.5784 v -3.0003 h -10.2505 v 3.0003 z m -17.6836,0 v -3.0003 h -10.2501 v 3.0003 z m -17.6832,0 v -3.0003 h -10.2505 v 3.0003 z" />
    <path
       id="path10289-6-9-0-3-7-6-4-6-9-7-5-6"
       style="display:inline;fill:none;fill-opacity:1;stroke:#f70016;stroke-width:0.249523;stroke-linecap:square;stroke-linejoin:miter;stroke-miterlimit:0;stroke-dasharray:none;stroke-opacity:1;paint-order:stroke markers fill"
       d="m 448.59144,1511.8205 v 3.0003 h 10.25054 v -3.0003 z m 17.68368,0 v 3.0003 h 10.25002 v -3.0003 z m 17.68316,0 v 3.0003 h 10.25053 v -3.0003 z m 53.39519,0 v 3.0003 H 547.604 v -3.0003 z m 17.68367,0 v 3.0003 h 10.25002 v -3.0003 z m 17.68316,0 v 3.0003 h 10.25054 v -3.0003 z m 53.39519,0 v 3.0003 h 10.25054 v -3.0003 z m 17.68368,0 v 3.0003 h 10.25002 v -3.0003 z m 17.68315,0 v 3.0003 h 10.25054 v -3.0003 z" />
  </g>
  <g
     inkscape:groupmode="layer"
     id="layer6"
     inkscape:label="Layer 3"
     style="display:inline"
     transform="translate(946.55844,329.43201)">
    <path
       id="rect30147"
       style="display:inline;fill:none;fill-opacity:1;stroke:#f70016;stroke-width:0.25;stroke-linecap:square;stroke-linejoin:miter;stroke-miterlimit:0;stroke-dasharray:none;stroke-opacity:1;paint-order:stroke markers fill"
       d="m -904.80557,-301.04384 v 7.32159 h 3.00248 v 10.25787 h -3.00248 v 7.43845 h 3.00248 v 10.25735 h -3.00248 v 7.43846 h 3.00248 v 10.25786 h -3.00248 v 594.30668 h 3.00248 v 10.25787 h -3.00248 v 7.43844 h 3.00248 v 10.25736 h -3.00248 v 7.43844 h 3.00248 v 10.25787 h -3.00248 v 7.32159 h 7.32158 v -3.00248 h 10.25786 v 3.00248 h 7.43844 v -3.00248 h 10.25735 v 3.00248 h 7.43845 v -3.00248 h 10.25786 v 3.00248 h 594.30728 v -3.00248 h 10.25787 v 3.00248 h 7.43845 v -3.00248 h 10.25734 v 3.00248 h 7.43844 v -3.00248 h 10.25734 v 3.00248 h 7.32158 v -7.32159 h -3.00248 v -10.25787 h 3.00248 v -7.43793 h -3.00248 v -10.25787 h 3.00248 v -7.43844 h -3.00248 v -10.25787 h 3.00248 v -594.30719 h -3.00248 v -10.25787 h 3.00248 v -7.43846 h -3.00248 v -10.25735 h 3.00248 v -7.43845 h -3.00248 v -10.25786 h 3.00248 v -7.32108 h -7.32158 v 3.00249 h -10.25785 v -3.00249 h -7.43845 v 3.00249 h -10.25735 v -3.00249 h -7.43845 v 3.00249 h -10.25786 v -3.00249 h -594.30676 v 3.00197 h -10.25786 v -3.00197 h -7.43845 v 3.00197 h -10.25735 v -3.00197 h -7.43844 v 3.00197 h -10.25786 v -3.00197 z m 57.54041,7.3066 h 2.75218 v 10.26458 h -2.75218 z m 582.41632,0 h 2.75218 v 10.26458 h -2.75218 z m 0,17.70769 h 2.75218 v 10.26459 h -2.75218 z m -582.41632,5.2e-4 h 2.75218 v 10.26407 h -2.75218 z m 0,17.70717 h 2.75218 v 10.2646 h -2.75218 z m 582.41632,0 h 2.75218 v 10.2646 h -2.75218 z m -632.65015,14.81899 h 10.26459 v 2.75219 h -10.26459 z m 17.70769,0 h 10.26407 v 2.75219 h -10.26407 z m 17.70768,0 h 10.26459 v 2.75219 h -10.26459 z m 604.54136,0 h 10.26458 v 2.75219 h -10.26458 z m 17.70768,0 h 10.26459 v 2.75219 h -10.26459 z m 17.70768,0 h 10.26459 v 2.75219 h -10.26459 z m -447.3478,161.865471 h 10.25785 v 2.752709 h -10.25785 z m 17.6963,0 h 10.25735 v 2.752709 h -10.25735 z m 17.6958,0 h 10.25786 v 2.752709 h -10.25786 z m 25.9208,0 h 10.25786 v 2.752709 h -10.25786 z m 17.69629,0 h 10.25734 v 2.752709 h -10.25734 z m 17.69579,0 h 10.25786 v 2.752709 h -10.25786 z m 25.92081,0 h 10.25734 v 2.752709 h -10.25734 z m 17.69579,0 h 10.25734 v 2.752709 h -10.25734 z m 17.69577,0 h 10.25786 v 2.752709 h -10.25786 z m 25.9208,0 h 10.25786 v 2.752709 h -10.25786 z m 17.6963,0 h 10.25735 v 2.752709 h -10.25735 z m 17.6958,0 h 10.25786 v 2.752709 h -10.25786 z m -235.25434,15.924088 h 2.75219 v 10.257868 h -2.75219 z m 258.68461,0 h 2.75219 v 10.257868 h -2.75219 z m -258.68461,17.696322 h 2.75219 v 10.257349 h -2.75219 z m 258.68461,0 h 2.75219 v 10.257349 h -2.75219 z m -258.68461,17.695803 h 2.75219 v 10.257859 h -2.75219 z m 258.68461,0 h 2.75219 v 10.257859 h -2.75219 z m -258.68461,25.9208068 h 2.75219 v 10.257869 h -2.75219 z m 258.68461,0 h 2.75219 v 10.257869 h -2.75219 z M -685.39879,13.295944 h 2.75219 v 10.257347 h -2.75219 z m 258.68461,0 h 2.75219 v 10.257347 h -2.75219 z m -258.68461,17.695803 h 2.75219 v 10.257858 h -2.75219 z m 258.68461,0 h 2.75219 v 10.257858 h -2.75219 z m -258.68461,25.920808 h 2.75219 v 10.257869 h -2.75219 z m 258.68461,0 h 2.75219 v 10.257869 h -2.75219 z m -258.68461,17.696323 h 2.75219 v 10.257349 h -2.75219 z m 258.68461,0 h 2.75219 v 10.257349 h -2.75219 z m -258.68461,17.695789 h 2.75219 v 10.257353 h -2.75219 z m 258.68461,0 h 2.75219 v 10.257353 h -2.75219 z m -258.68461,25.920303 h 2.75219 v 10.25786 h -2.75219 z m 258.68461,0 h 2.75219 v 10.25786 h -2.75219 z m -258.68461,17.69632 h 2.75219 v 10.25735 h -2.75219 z m 258.68461,0 h 2.75219 v 10.25735 h -2.75219 z m -258.68461,17.6958 h 2.75219 v 10.25786 h -2.75219 z m 258.68461,0 h 2.75219 v 10.25786 h -2.75219 z m -242.76052,23.42977 h 10.25785 v 2.75219 h -10.25785 z m 17.6963,0 h 10.25735 v 2.75219 h -10.25735 z m 17.6958,0 h 10.25786 v 2.75219 h -10.25786 z m 25.9208,0 h 10.25786 v 2.75219 h -10.25786 z m 17.69629,0 h 10.25734 v 2.75219 h -10.25734 z m 17.69579,0 h 10.25786 v 2.75219 h -10.25786 z m 25.92081,0 h 10.25785 v 2.75219 h -10.25785 z m 17.69579,0 h 10.25734 v 2.75219 h -10.25734 z m 17.69577,0 h 10.25786 v 2.75219 h -10.25786 z m 25.9208,0 h 10.25786 v 2.75219 h -10.25786 z m 17.6963,0 h 10.25735 v 2.75219 h -10.25735 z m 17.6958,0 h 10.25786 v 2.75219 h -10.25786 z m -447.35454,161.86597 h 10.26459 v 2.75271 h -10.26459 z m 17.7082,0 h 10.26407 v 2.75271 h -10.26407 z m 17.70717,0 h 10.26459 v 2.75271 h -10.26459 z m 604.54136,0 h 10.26458 v 2.75271 h -10.26458 z m 17.70768,0 h 10.26407 v 2.75271 h -10.26407 z m 17.70768,0 h 10.26459 v 2.75271 h -10.26459 z m -625.13774,7.30658 h 2.75218 v 10.2646 h -2.75218 z m 582.4158,0 h 2.75218 v 10.2646 h -2.75218 z m -582.4158,17.70771 h 2.75218 v 10.26458 h -2.75218 z m 582.4158,0 h 2.75218 v 10.26458 h -2.75218 z m -582.4158,17.70769 h 2.75218 v 10.2646 h -2.75218 z m 582.4158,0 h 2.75218 v 10.2646 h -2.75218 z" />
    <rect
       style="fill:none;stroke:#f70016;stroke-width:0.249998;stroke-linecap:square;stroke-miterlimit:0;stroke-dasharray:none;paint-order:stroke markers fill"
       id="rect12198"
       width="450.25"
       height="31.250002"
       x="-482.97687"
       y="1365.4344" />
    <rect
       style="display:inline;fill:none;stroke:#f70016;stroke-width:0.249998;stroke-linecap:square;stroke-miterlimit:0;stroke-dasharray:none;paint-order:stroke markers fill"
       id="rect12198-3"
       width="450.25"
       height="31.250002"
       x="-482.97687"
       y="1428.1011" />
    <rect
       style="display:inline;fill:none;stroke:#f70016;stroke-width:0.249998;stroke-linecap:square;stroke-miterlimit:0;stroke-dasharray:none;paint-order:stroke markers fill"
       id="rect12198-5"
       width="450.25"
       height="31.250002"
       x="-482.97687"
       y="1553.4344" />
    <rect
       style="display:inline;fill:none;stroke:#f70016;stroke-width:0.249998;stroke-linecap:square;stroke-miterlimit:0;stroke-dasharray:none;paint-order:stroke markers fill"
       id="rect12198-6"
       width="450.25"
       height="31.250002"
       x="-482.97687"
       y="1490.7678" />
  </g>
</svg>
